<svg xmlns="http://www.w3.org/2000/svg" xmlns:xlink="http://www.w3.org/1999/xlink" width="1024" zoomAndPan="magnify" viewBox="0 0 768 767.999994" height="1024" preserveAspectRatio="xMidYMid meet" version="1.0"><defs><g/><clipPath id="d0cc6570ab"><path d="M 428 355 L 735.4375 355 L 735.4375 436 L 428 436 Z M 428 355 " clip-rule="nonzero"/></clipPath></defs><g clip-path="url(#d0cc6570ab)"><path fill="#1e1a1b" d="M 625.019531 427.421875 C 608.4375 433.234375 584.328125 423.667969 583.679688 404.273438 C 634.011719 381.007812 612.546875 336.457031 582.679688 364.347656 C 564.363281 340.09375 527.425781 368.433594 578.4375 403.066406 C 577.746094 424.855469 546.882812 436.683594 530.34375 423.996094 C 529.578125 423.292969 528.894531 422.519531 528.300781 421.667969 C 525.570312 418.613281 522.484375 422.664062 524.964844 425.328125 C 539.535156 442.949219 572.855469 435 581.21875 414.785156 C 588.566406 430.394531 608.480469 438.066406 624.851562 433.78125 C 629.621094 432.246094 640.421875 427.964844 637.105469 421.667969 C 633.621094 417.8125 631.425781 425.988281 625.019531 427.421875 Z M 548.71875 392.730469 C 548.742188 392.757812 548.761719 392.789062 548.78125 392.824219 C 550.964844 396.703125 550.632812 397.75 550.023438 398.265625 C 549.796875 398.460938 549.53125 398.554688 549.230469 398.550781 C 548.398438 398.550781 547.484375 397.816406 546.980469 397.410156 C 546.945312 397.378906 546.910156 397.347656 546.878906 397.3125 C 528.042969 376.4375 499.929688 365.207031 460.925781 362.980469 C 460.6875 362.96875 460.484375 362.875 460.320312 362.707031 C 460.15625 362.535156 460.070312 362.332031 460.066406 362.09375 C 460.066406 361.855469 460.144531 361.648438 460.304688 361.476562 C 460.46875 361.300781 460.667969 361.203125 460.90625 361.1875 C 475.882812 359.988281 493.417969 362.179688 509.007812 367.210938 C 521.464844 371.234375 538.46875 378.921875 548.71875 392.730469 Z M 429.3125 389.855469 C 429.089844 389.925781 428.875 389.910156 428.660156 389.8125 C 428.449219 389.714844 428.300781 389.554688 428.210938 389.339844 C 428.125 389.125 428.121094 388.90625 428.203125 388.6875 C 428.28125 388.472656 428.425781 388.308594 428.636719 388.203125 C 458.6875 372.832031 513.457031 377.507812 539.207031 397.644531 C 543.351562 401.25 543.277344 402.226562 542.851562 402.917969 C 542.578125 403.34375 542.191406 403.535156 541.691406 403.492188 C 541.007812 403.492188 540.175781 403.191406 539.390625 402.875 C 539.347656 402.859375 539.308594 402.839844 539.269531 402.816406 C 503.929688 382.03125 467.960938 377.792969 429.3125 389.855469 Z M 532.886719 410.804688 C 499.871094 401.492188 474.566406 402.648438 448.273438 414.664062 C 448.0625 414.761719 447.847656 414.777344 447.625 414.707031 C 447.402344 414.640625 447.234375 414.503906 447.117188 414.304688 C 447 414.105469 446.964844 413.894531 447.011719 413.667969 C 447.058594 413.441406 447.175781 413.261719 447.363281 413.125 C 466.761719 398.847656 509.621094 395.277344 532.28125 406.046875 C 535.667969 407.992188 536.171875 408.960938 535.910156 409.828125 C 535.550781 411 533.878906 410.890625 533.070312 410.835938 C 533.007812 410.832031 532.945312 410.824219 532.886719 410.804688 Z M 702.464844 361.1875 C 702.703125 361.203125 702.902344 361.300781 703.0625 361.476562 C 703.226562 361.648438 703.304688 361.855469 703.300781 362.09375 C 703.296875 362.332031 703.214844 362.535156 703.050781 362.707031 C 702.882812 362.875 702.683594 362.96875 702.445312 362.980469 C 663.441406 365.207031 635.324219 376.4375 616.492188 397.3125 C 616.460938 397.347656 616.425781 397.378906 616.386719 397.410156 C 615.882812 397.816406 614.96875 398.550781 614.136719 398.550781 C 613.835938 398.554688 613.574219 398.460938 613.347656 398.265625 C 612.734375 397.75 612.40625 396.703125 614.589844 392.824219 C 614.609375 392.789062 614.628906 392.757812 614.652344 392.730469 C 624.898438 378.921875 641.902344 371.234375 654.363281 367.210938 C 669.953125 362.179688 687.484375 359.988281 702.464844 361.1875 Z M 735.15625 389.339844 C 735.070312 389.558594 734.917969 389.714844 734.707031 389.8125 C 734.496094 389.914062 734.277344 389.925781 734.054688 389.855469 C 695.40625 377.792969 659.4375 382.03125 624.097656 402.816406 C 624.058594 402.839844 624.019531 402.859375 623.980469 402.875 C 623.195312 403.195312 622.359375 403.496094 621.679688 403.496094 C 621.175781 403.535156 620.789062 403.34375 620.519531 402.917969 C 620.089844 402.226562 620.015625 401.25 624.125 397.675781 C 649.914062 377.511719 704.683594 372.828125 734.734375 388.203125 C 734.941406 388.308594 735.085938 388.472656 735.167969 388.6875 C 735.25 388.90625 735.246094 389.125 735.15625 389.339844 Z M 716.007812 413.125 C 716.195312 413.261719 716.3125 413.441406 716.359375 413.667969 C 716.40625 413.894531 716.371094 414.105469 716.253906 414.304688 C 716.132812 414.503906 715.964844 414.640625 715.742188 414.707031 C 715.523438 414.777344 715.304688 414.761719 715.097656 414.664062 C 688.804688 402.644531 663.496094 401.492188 630.484375 410.804688 C 630.421875 410.824219 630.359375 410.835938 630.296875 410.839844 C 629.492188 410.894531 627.816406 411 627.460938 409.828125 C 627.195312 408.960938 627.699219 407.992188 631.023438 406.078125 C 653.75 395.277344 696.605469 398.847656 716.007812 413.125 Z M 716.007812 413.125 " fill-opacity="1" fill-rule="nonzero"/></g><g fill="#000000" fill-opacity="1"><g transform="translate(26.668115, 333.947807)"><g><path d="M 83.734375 -203.625 C 87.660156 -196.289062 93.421875 -189.539062 101.015625 -183.375 C 108.617188 -177.21875 116.875 -171.125 125.78125 -165.09375 C 134.695312 -159.070312 143.804688 -152.785156 153.109375 -146.234375 C 162.421875 -139.679688 170.8125 -132.34375 178.28125 -124.21875 C 185.75 -116.09375 191.773438 -106.984375 196.359375 -96.890625 C 200.941406 -86.804688 202.972656 -75.082031 202.453125 -61.71875 C 201.929688 -46.257812 197.539062 -32.367188 189.28125 -20.046875 C 181.03125 -7.734375 170.546875 2.351562 157.828125 10.21875 C 145.117188 18.082031 131.164062 23.453125 115.96875 26.328125 C 100.769531 29.210938 85.894531 29.148438 71.34375 26.140625 C 56.800781 23.128906 43.5 16.707031 31.4375 6.875 C 19.382812 -2.945312 10.347656 -16.507812 4.328125 -33.8125 C 0.128906 -45.601562 -0.984375 -56.347656 0.984375 -66.046875 C 2.953125 -75.742188 6.882812 -84.128906 12.78125 -91.203125 C 18.675781 -98.273438 25.945312 -103.644531 34.59375 -107.3125 C 43.238281 -110.988281 52.28125 -112.628906 61.71875 -112.234375 C 71.15625 -111.835938 80.394531 -109.148438 89.4375 -104.171875 C 98.476562 -99.191406 106.40625 -91.460938 113.21875 -80.984375 C 117.40625 -74.691406 118.515625 -68.660156 116.546875 -62.890625 C 114.585938 -57.128906 111.25 -52.738281 106.53125 -49.71875 C 101.8125 -46.707031 96.4375 -45.460938 90.40625 -45.984375 C 84.382812 -46.515625 79.273438 -49.925781 75.078125 -56.21875 C 72.203125 -60.40625 68.863281 -63.285156 65.0625 -64.859375 C 61.257812 -66.429688 57.785156 -66.890625 54.640625 -66.234375 C 51.492188 -65.578125 49.066406 -63.742188 47.359375 -60.734375 C 45.660156 -57.722656 45.726562 -53.726562 47.5625 -48.75 C 51.5 -37.476562 57.460938 -29.414062 65.453125 -24.5625 C 73.441406 -19.71875 82.15625 -17.164062 91.59375 -16.90625 C 101.03125 -16.644531 110.332031 -18.28125 119.5 -21.8125 C 128.675781 -25.351562 136.410156 -29.742188 142.703125 -34.984375 C 154.753906 -45.734375 159.078125 -59.363281 155.671875 -75.875 C 154.359375 -81.375 151.273438 -86.675781 146.421875 -91.78125 C 141.578125 -96.894531 135.8125 -102.003906 129.125 -107.109375 C 122.445312 -112.222656 115.046875 -117.46875 106.921875 -122.84375 C 98.796875 -128.21875 90.867188 -133.914062 83.140625 -139.9375 C 75.410156 -145.96875 68.070312 -152.457031 61.125 -159.40625 C 54.1875 -166.351562 48.488281 -173.890625 44.03125 -182.015625 C 35.382812 -197.472656 30.664062 -211.882812 29.875 -225.25 C 29.09375 -238.613281 31.382812 -250.273438 36.75 -260.234375 C 42.125 -270.191406 50.25 -278.316406 61.125 -284.609375 C 72 -290.898438 84.90625 -294.703125 99.84375 -296.015625 C 111.90625 -297.054688 124.09375 -296.394531 136.40625 -294.03125 C 148.726562 -291.675781 159.800781 -287.484375 169.625 -281.453125 C 179.457031 -275.429688 187.320312 -267.441406 193.21875 -257.484375 C 199.113281 -247.523438 201.796875 -235.601562 201.265625 -221.71875 C 200.742188 -213.59375 199.109375 -205.796875 196.359375 -198.328125 C 193.609375 -190.859375 189.742188 -184.238281 184.765625 -178.46875 C 179.785156 -172.96875 174.28125 -170.410156 168.25 -170.796875 C 162.21875 -171.191406 157.101562 -173.289062 152.90625 -177.09375 C 148.71875 -180.894531 146.097656 -185.804688 145.046875 -191.828125 C 144.003906 -197.859375 145.972656 -203.628906 150.953125 -209.140625 C 152.523438 -210.710938 153.703125 -212.742188 154.484375 -215.234375 C 155.273438 -217.722656 155.734375 -220.34375 155.859375 -223.09375 C 155.992188 -225.84375 155.734375 -228.523438 155.078125 -231.140625 C 154.421875 -233.765625 153.441406 -235.992188 152.140625 -237.828125 C 148.722656 -242.285156 143.28125 -245.628906 135.8125 -247.859375 C 128.34375 -250.085938 120.613281 -251.203125 112.625 -251.203125 C 104.632812 -251.203125 97.226562 -250.085938 90.40625 -247.859375 C 83.59375 -245.628906 79.007812 -242.285156 76.65625 -237.828125 C 75.082031 -234.679688 74.753906 -230.289062 75.671875 -224.65625 C 76.585938 -219.019531 79.273438 -212.007812 83.734375 -203.625 Z M 100.25 -198.515625 C 99.195312 -199.304688 97.945312 -199.832031 96.5 -200.09375 C 95.0625 -200.351562 93.617188 -200.613281 92.171875 -200.875 C 90.734375 -201.132812 89.488281 -201.59375 88.4375 -202.25 C 87.394531 -202.90625 86.742188 -203.890625 86.484375 -205.203125 C 86.484375 -206.773438 86.613281 -208.085938 86.875 -209.140625 C 87.664062 -212.015625 89.566406 -214.367188 92.578125 -216.203125 C 95.585938 -218.046875 98.796875 -219.425781 102.203125 -220.34375 C 105.609375 -221.257812 108.882812 -221.648438 112.03125 -221.515625 C 115.175781 -221.390625 117.40625 -220.800781 118.71875 -219.75 C 119.769531 -218.4375 120.617188 -216.269531 121.265625 -213.25 C 121.921875 -210.238281 122.179688 -207.03125 122.046875 -203.625 C 121.921875 -200.21875 121.332031 -196.941406 120.28125 -193.796875 C 119.238281 -190.648438 117.671875 -188.425781 115.578125 -187.125 C 113.210938 -185.550781 111.113281 -185.15625 109.28125 -185.9375 C 106.664062 -186.726562 104.894531 -188.691406 103.96875 -191.828125 C 103.050781 -194.972656 101.8125 -197.203125 100.25 -198.515625 Z M 92.78125 -222.5 C 88.320312 -223.019531 86.285156 -225.179688 86.671875 -228.984375 C 87.066406 -232.785156 88.445312 -236.257812 90.8125 -239.40625 C 93.425781 -243.332031 96.046875 -245.425781 98.671875 -245.6875 C 101.023438 -245.957031 102.859375 -244.910156 104.171875 -242.546875 C 105.484375 -240.191406 106.070312 -237.441406 105.9375 -234.296875 C 105.8125 -231.148438 104.695312 -228.332031 102.59375 -225.84375 C 100.5 -223.351562 97.226562 -222.238281 92.78125 -222.5 Z M 127.765625 -247.65625 C 129.066406 -246.082031 129.457031 -243.851562 128.9375 -240.96875 C 128.414062 -238.09375 127.300781 -235.410156 125.59375 -232.921875 C 123.894531 -230.429688 121.929688 -228.460938 119.703125 -227.015625 C 117.472656 -225.578125 115.441406 -225.382812 113.609375 -226.4375 C 111.515625 -227.738281 110.398438 -229.832031 110.265625 -232.71875 C 110.140625 -235.601562 110.726562 -238.488281 112.03125 -241.375 C 112.5625 -242.414062 113.476562 -243.59375 114.78125 -244.90625 C 116.09375 -246.21875 117.535156 -247.265625 119.109375 -248.046875 C 120.679688 -248.835938 122.253906 -249.296875 123.828125 -249.421875 C 125.398438 -249.554688 126.710938 -248.96875 127.765625 -247.65625 Z M 146.234375 -208.34375 C 146.492188 -206.25 145.769531 -203.957031 144.0625 -201.46875 C 142.363281 -198.976562 140.332031 -196.816406 137.96875 -194.984375 C 135.613281 -193.148438 133.191406 -192.234375 130.703125 -192.234375 C 128.210938 -192.234375 126.445312 -193.804688 125.40625 -196.953125 C 124.09375 -201.140625 124.414062 -204.539062 126.375 -207.15625 C 128.34375 -209.78125 130.769531 -211.617188 133.65625 -212.671875 C 136.539062 -213.722656 139.359375 -213.851562 142.109375 -213.0625 C 144.859375 -212.28125 146.234375 -210.707031 146.234375 -208.34375 Z M 140.734375 -220.140625 C 138.367188 -218.046875 135.742188 -216.539062 132.859375 -215.625 C 129.984375 -214.707031 127.5 -215.296875 125.40625 -217.390625 C 123.832031 -218.960938 123.503906 -220.992188 124.421875 -223.484375 C 125.335938 -225.972656 126.773438 -228.332031 128.734375 -230.5625 C 130.703125 -232.789062 132.992188 -234.492188 135.609375 -235.671875 C 138.234375 -236.847656 140.597656 -237.046875 142.703125 -236.265625 C 144.015625 -235.472656 144.800781 -234.351562 145.0625 -232.90625 C 145.320312 -231.46875 145.320312 -229.960938 145.0625 -228.390625 C 144.800781 -226.816406 144.273438 -225.242188 143.484375 -223.671875 C 142.703125 -222.109375 141.785156 -220.929688 140.734375 -220.140625 Z M 140.734375 -220.140625 "/></g></g></g><g fill="#000000" fill-opacity="1"><g transform="translate(240.433995, 334.838514)"><g><path d="M 33.59375 -105 C 42.257812 -106.726562 49.757812 -106.359375 56.09375 -103.890625 C 62.425781 -101.429688 67.625 -97.597656 71.6875 -92.390625 C 75.757812 -87.191406 78.796875 -80.992188 80.796875 -73.796875 C 82.796875 -66.597656 83.796875 -59.066406 83.796875 -51.203125 C 83.796875 -43.335938 82.894531 -35.570312 81.09375 -27.90625 C 79.300781 -20.238281 76.632812 -13.335938 73.09375 -7.203125 C 69.5625 -1.066406 65.226562 3.898438 60.09375 7.703125 C 54.96875 11.503906 49.132812 13.40625 42.59375 13.40625 C 34.332031 13.40625 27.164062 11.070312 21.09375 6.40625 C 15.03125 1.738281 10.234375 -4.257812 6.703125 -11.59375 C 3.171875 -18.925781 1.070312 -26.992188 0.40625 -35.796875 C -0.257812 -44.597656 0.601562 -53 3 -61 C 4.863281 -66.863281 7.53125 -72.425781 11 -77.6875 C 14.46875 -82.957031 18.9375 -87.660156 24.40625 -91.796875 C 23.863281 -94.867188 24.492188 -97.671875 26.296875 -100.203125 C 28.097656 -102.734375 30.53125 -104.332031 33.59375 -105 Z M 43.40625 -61.40625 C 43.132812 -57.9375 43.664062 -55 45 -52.59375 C 46.332031 -50.195312 48.066406 -49.132812 50.203125 -49.40625 C 51.671875 -49.53125 52.9375 -49.992188 54 -50.796875 C 55.0625 -51.597656 55.925781 -52.53125 56.59375 -53.59375 C 57.257812 -54.664062 57.757812 -55.832031 58.09375 -57.09375 C 58.425781 -58.363281 58.660156 -59.53125 58.796875 -60.59375 C 58.929688 -61.800781 58.863281 -63.171875 58.59375 -64.703125 C 58.332031 -66.234375 57.867188 -67.695312 57.203125 -69.09375 C 56.535156 -70.5 55.703125 -71.703125 54.703125 -72.703125 C 53.703125 -73.703125 52.535156 -74.203125 51.203125 -74.203125 C 49.867188 -74.203125 48.332031 -73.132812 46.59375 -71 C 44.863281 -68.863281 43.800781 -65.664062 43.40625 -61.40625 Z M 31.59375 -74.203125 C 30.257812 -74.203125 29.0625 -73.703125 28 -72.703125 C 26.9375 -71.703125 26.070312 -70.5 25.40625 -69.09375 C 24.738281 -67.695312 24.269531 -66.234375 24 -64.703125 C 23.726562 -63.171875 23.726562 -61.800781 24 -60.59375 C 24.132812 -59.53125 24.367188 -58.363281 24.703125 -57.09375 C 25.035156 -55.832031 25.535156 -54.664062 26.203125 -53.59375 C 26.867188 -52.53125 27.734375 -51.597656 28.796875 -50.796875 C 29.867188 -49.992188 31.132812 -49.53125 32.59375 -49.40625 C 34.726562 -49.132812 36.460938 -50.195312 37.796875 -52.59375 C 39.128906 -55 39.664062 -57.9375 39.40625 -61.40625 C 39 -65.664062 37.925781 -68.863281 36.1875 -71 C 34.457031 -73.132812 32.925781 -74.203125 31.59375 -74.203125 Z M 11.59375 -43.796875 C 11.726562 -42.734375 11.925781 -41.566406 12.1875 -40.296875 C 12.457031 -39.035156 12.894531 -37.867188 13.5 -36.796875 C 14.101562 -35.734375 14.90625 -34.832031 15.90625 -34.09375 C 16.90625 -33.363281 18.203125 -33 19.796875 -33 C 20.734375 -33 21.734375 -33.296875 22.796875 -33.890625 C 23.867188 -34.492188 24.867188 -35.363281 25.796875 -36.5 C 26.734375 -37.632812 27.46875 -39 28 -40.59375 C 28.53125 -42.195312 28.664062 -44 28.40625 -46 C 28.132812 -47.601562 27.566406 -49.070312 26.703125 -50.40625 C 25.835938 -51.738281 24.835938 -52.90625 23.703125 -53.90625 C 22.566406 -54.90625 21.398438 -55.671875 20.203125 -56.203125 C 19.003906 -56.734375 18.070312 -57 17.40625 -57 C 16.070312 -57 14.96875 -56.53125 14.09375 -55.59375 C 13.226562 -54.664062 12.59375 -53.5 12.1875 -52.09375 C 11.789062 -50.695312 11.523438 -49.265625 11.390625 -47.796875 C 11.265625 -46.328125 11.332031 -44.992188 11.59375 -43.796875 Z M 59 -21.59375 C 60.332031 -23.332031 60.53125 -25.832031 59.59375 -29.09375 C 58.664062 -32.363281 57.164062 -35.597656 55.09375 -38.796875 C 53.03125 -41.992188 50.734375 -44.757812 48.203125 -47.09375 C 45.671875 -49.425781 43.601562 -50.59375 42 -50.59375 C 40.53125 -50.59375 38.59375 -49.59375 36.1875 -47.59375 C 33.789062 -45.59375 31.5625 -43.160156 29.5 -40.296875 C 27.4375 -37.429688 25.800781 -34.429688 24.59375 -31.296875 C 23.394531 -28.160156 23.394531 -25.394531 24.59375 -23 C 25.664062 -20.726562 26.929688 -19.457031 28.390625 -19.1875 C 29.859375 -18.925781 31.359375 -19.0625 32.890625 -19.59375 C 34.429688 -20.132812 35.96875 -20.800781 37.5 -21.59375 C 39.03125 -22.394531 40.394531 -22.796875 41.59375 -22.796875 C 43.0625 -22.796875 44.492188 -22.363281 45.890625 -21.5 C 47.296875 -20.632812 48.695312 -19.898438 50.09375 -19.296875 C 51.5 -18.703125 52.929688 -18.4375 54.390625 -18.5 C 55.859375 -18.5625 57.394531 -19.59375 59 -21.59375 Z M 64.40625 -32.203125 C 66 -32.203125 67.257812 -32.566406 68.1875 -33.296875 C 69.125 -34.035156 69.894531 -34.9375 70.5 -36 C 71.101562 -37.0625 71.570312 -38.226562 71.90625 -39.5 C 72.238281 -40.769531 72.46875 -41.9375 72.59375 -43 C 72.726562 -44.195312 72.757812 -45.53125 72.6875 -47 C 72.625 -48.46875 72.359375 -49.898438 71.890625 -51.296875 C 71.429688 -52.703125 70.765625 -53.867188 69.890625 -54.796875 C 69.023438 -55.734375 67.925781 -56.203125 66.59375 -56.203125 C 65.925781 -56.203125 65.023438 -55.929688 63.890625 -55.390625 C 62.765625 -54.859375 61.597656 -54.09375 60.390625 -53.09375 C 59.191406 -52.09375 58.125 -50.925781 57.1875 -49.59375 C 56.257812 -48.257812 55.726562 -46.796875 55.59375 -45.203125 C 55.332031 -43.203125 55.5 -41.398438 56.09375 -39.796875 C 56.695312 -38.203125 57.429688 -36.835938 58.296875 -35.703125 C 59.160156 -34.566406 60.160156 -33.695312 61.296875 -33.09375 C 62.429688 -32.5 63.46875 -32.203125 64.40625 -32.203125 Z M 64.40625 -32.203125 "/></g></g></g><g fill="#000000" fill-opacity="1"><g transform="translate(332.431557, 334.838514)"><g><path d="M 31.203125 -9.59375 C 34.929688 -8.664062 37.394531 -6.800781 38.59375 -4 C 39.800781 -1.195312 40.070312 1.597656 39.40625 4.390625 C 38.738281 7.191406 37.171875 9.523438 34.703125 11.390625 C 32.234375 13.265625 29.132812 13.734375 25.40625 12.796875 C 18.601562 10.929688 13.265625 7.628906 9.390625 2.890625 C 5.523438 -1.835938 2.992188 -7.398438 1.796875 -13.796875 C 0.597656 -19.929688 0.0664062 -27.460938 0.203125 -36.390625 C 0.335938 -45.328125 0.738281 -54.628906 1.40625 -64.296875 C 2.070312 -73.960938 2.90625 -83.628906 3.90625 -93.296875 C 4.90625 -102.960938 5.601562 -111.597656 6 -119.203125 C 6.132812 -123.066406 7.46875 -125.898438 10 -127.703125 C 12.53125 -129.503906 15.226562 -130.300781 18.09375 -130.09375 C 20.96875 -129.894531 23.535156 -128.757812 25.796875 -126.6875 C 28.066406 -124.625 29.132812 -121.726562 29 -118 C 28.726562 -113.726562 28.289062 -108.394531 27.6875 -102 C 27.09375 -95.601562 26.492188 -88.738281 25.890625 -81.40625 C 25.296875 -74.070312 24.765625 -66.671875 24.296875 -59.203125 C 23.828125 -51.734375 23.5625 -44.765625 23.5 -38.296875 C 23.4375 -31.828125 23.671875 -26.257812 24.203125 -21.59375 C 24.734375 -16.925781 25.734375 -13.726562 27.203125 -12 C 28.003906 -11.0625 29.335938 -10.257812 31.203125 -9.59375 Z M 20.59375 -16.796875 C 19.800781 -16.660156 19.171875 -16.125 18.703125 -15.1875 C 18.234375 -14.257812 17.960938 -13.296875 17.890625 -12.296875 C 17.828125 -11.296875 17.925781 -10.363281 18.1875 -9.5 C 18.457031 -8.632812 18.992188 -8.203125 19.796875 -8.203125 C 20.867188 -7.929688 21.671875 -8.257812 22.203125 -9.1875 C 22.734375 -10.125 23.132812 -11.128906 23.40625 -12.203125 C 23.664062 -13.003906 23.53125 -14.035156 23 -15.296875 C 22.46875 -16.566406 21.664062 -17.066406 20.59375 -16.796875 Z M 14 -16.796875 C 13.0625 -17.066406 12.328125 -16.566406 11.796875 -15.296875 C 11.265625 -14.035156 11.066406 -13.003906 11.203125 -12.203125 C 11.460938 -11.128906 11.894531 -10.125 12.5 -9.1875 C 13.101562 -8.257812 13.867188 -7.929688 14.796875 -8.203125 C 15.597656 -8.203125 16.128906 -8.632812 16.390625 -9.5 C 16.660156 -10.363281 16.726562 -11.296875 16.59375 -12.296875 C 16.46875 -13.296875 16.203125 -14.257812 15.796875 -15.1875 C 15.398438 -16.125 14.800781 -16.660156 14 -16.796875 Z M 7.203125 -10 C 6.796875 -9.601562 6.523438 -8.867188 6.390625 -7.796875 C 6.265625 -6.734375 6.367188 -5.734375 6.703125 -4.796875 C 7.035156 -3.867188 7.5 -3.132812 8.09375 -2.59375 C 8.695312 -2.0625 9.46875 -2.0625 10.40625 -2.59375 C 11.738281 -3.394531 12.40625 -4.363281 12.40625 -5.5 C 12.40625 -6.632812 12.101562 -7.632812 11.5 -8.5 C 10.894531 -9.363281 10.160156 -9.992188 9.296875 -10.390625 C 8.429688 -10.796875 7.734375 -10.664062 7.203125 -10 Z M 23.40625 2.203125 C 23.800781 1.265625 23.796875 0.234375 23.390625 -0.890625 C 22.992188 -2.023438 22.425781 -3.09375 21.6875 -4.09375 C 20.957031 -5.09375 20.125 -5.894531 19.1875 -6.5 C 18.257812 -7.101562 17.53125 -7.40625 17 -7.40625 C 16.46875 -7.40625 15.800781 -7.035156 15 -6.296875 C 14.195312 -5.566406 13.460938 -4.703125 12.796875 -3.703125 C 12.128906 -2.703125 11.59375 -1.703125 11.1875 -0.703125 C 10.789062 0.296875 10.726562 1.195312 11 2 C 11.132812 2.664062 11.601562 3.265625 12.40625 3.796875 C 13.332031 4.066406 14.226562 3.867188 15.09375 3.203125 C 15.96875 2.535156 16.800781 2.269531 17.59375 2.40625 C 18.394531 2.40625 19.257812 2.738281 20.1875 3.40625 C 21.125 4.070312 21.925781 4.070312 22.59375 3.40625 C 22.726562 3.132812 22.863281 2.929688 23 2.796875 C 23.132812 2.660156 23.269531 2.460938 23.40625 2.203125 Z M 24.59375 -2.59375 C 25.53125 -2.0625 26.332031 -2.0625 27 -2.59375 C 27.664062 -3.132812 28.164062 -3.867188 28.5 -4.796875 C 28.832031 -5.734375 28.929688 -6.734375 28.796875 -7.796875 C 28.660156 -8.867188 28.394531 -9.601562 28 -10 C 27.46875 -10.664062 26.734375 -10.796875 25.796875 -10.390625 C 24.867188 -9.992188 24.101562 -9.363281 23.5 -8.5 C 22.894531 -7.632812 22.625 -6.632812 22.6875 -5.5 C 22.757812 -4.363281 23.394531 -3.394531 24.59375 -2.59375 Z M 24.59375 -2.59375 "/></g></g></g><g fill="#000000" fill-opacity="1"><g transform="translate(380.430262, 334.838514)"><g><path d="M 89.59375 -112.796875 C 89.59375 -109.867188 89.394531 -106.601562 89 -103 C 88.601562 -93.394531 88.300781 -84.757812 88.09375 -77.09375 C 87.894531 -69.425781 87.757812 -62.226562 87.6875 -55.5 C 87.625 -48.769531 87.59375 -42.269531 87.59375 -36 C 87.59375 -29.726562 87.59375 -23.195312 87.59375 -16.40625 L 87.59375 -13 C 87.59375 -9.132812 86.394531 -6.234375 84 -4.296875 C 81.601562 -2.367188 78.96875 -1.40625 76.09375 -1.40625 C 73.226562 -1.40625 70.5625 -2.335938 68.09375 -4.203125 C 65.632812 -6.066406 64.40625 -8.929688 64.40625 -12.796875 L 64.40625 -19.40625 C 62.40625 -15.9375 59.867188 -12.097656 56.796875 -7.890625 C 53.734375 -3.691406 50.265625 0.0351562 46.390625 3.296875 C 42.523438 6.566406 38.359375 9 33.890625 10.59375 C 29.429688 12.195312 24.867188 12.195312 20.203125 10.59375 C 16.335938 9.257812 13.203125 6.957031 10.796875 3.6875 C 8.398438 0.425781 6.5 -3.300781 5.09375 -7.5 C 3.695312 -11.695312 2.664062 -16.128906 2 -20.796875 C 1.332031 -25.460938 0.863281 -29.796875 0.59375 -33.796875 C 0.195312 -39.929688 0 -46.398438 0 -53.203125 C 0 -60.003906 0.195312 -66.632812 0.59375 -73.09375 C 1 -79.5625 1.5 -85.726562 2.09375 -91.59375 C 2.695312 -97.46875 3.332031 -102.601562 4 -107 C 4.53125 -110.726562 6.160156 -113.359375 8.890625 -114.890625 C 11.628906 -116.429688 14.429688 -116.96875 17.296875 -116.5 C 20.160156 -116.03125 22.625 -114.660156 24.6875 -112.390625 C 26.757812 -110.128906 27.53125 -107.132812 27 -103.40625 C 26.46875 -99.53125 25.867188 -94.125 25.203125 -87.1875 C 24.535156 -80.257812 24.035156 -72.796875 23.703125 -64.796875 C 23.367188 -56.796875 23.300781 -48.796875 23.5 -40.796875 C 23.695312 -32.796875 24.394531 -25.863281 25.59375 -20 C 26 -17.863281 26.46875 -16.128906 27 -14.796875 C 27.53125 -13.460938 28.257812 -12.757812 29.1875 -12.6875 C 30.125 -12.625 31.394531 -13.328125 33 -14.796875 C 34.601562 -16.265625 36.738281 -18.800781 39.40625 -22.40625 C 43.269531 -27.738281 46.765625 -34.238281 49.890625 -41.90625 C 53.023438 -49.570312 55.757812 -57.367188 58.09375 -65.296875 C 60.425781 -73.234375 62.257812 -80.800781 63.59375 -88 C 64.925781 -95.195312 65.726562 -100.929688 66 -105.203125 L 66.40625 -112.796875 C 66.40625 -116.660156 67.601562 -119.523438 70 -121.390625 C 72.394531 -123.265625 75.0625 -124.203125 78 -124.203125 C 80.9375 -124.203125 83.601562 -123.234375 86 -121.296875 C 88.394531 -119.367188 89.59375 -116.535156 89.59375 -112.796875 Z M 48.203125 -89 C 47.128906 -89.53125 46.660156 -90.53125 46.796875 -92 C 46.929688 -93.46875 47.398438 -94.898438 48.203125 -96.296875 C 49.003906 -97.703125 50.003906 -98.90625 51.203125 -99.90625 C 52.398438 -100.90625 53.597656 -101.269531 54.796875 -101 C 55.597656 -100.863281 56.195312 -100.460938 56.59375 -99.796875 C 57 -99.128906 57.203125 -98.328125 57.203125 -97.390625 C 57.203125 -96.460938 57.097656 -95.566406 56.890625 -94.703125 C 56.691406 -93.835938 56.394531 -93.132812 56 -92.59375 C 54.9375 -91.132812 53.703125 -89.96875 52.296875 -89.09375 C 50.898438 -88.226562 49.535156 -88.195312 48.203125 -89 Z M 43.59375 -89.59375 C 44.53125 -89.332031 45.429688 -88.46875 46.296875 -87 C 47.160156 -85.53125 47.789062 -83.863281 48.1875 -82 C 48.59375 -80.132812 48.726562 -78.265625 48.59375 -76.390625 C 48.46875 -74.523438 47.800781 -72.992188 46.59375 -71.796875 C 45.925781 -71.128906 45.328125 -70.726562 44.796875 -70.59375 C 44.128906 -70.332031 43.492188 -70.398438 42.890625 -70.796875 C 42.296875 -71.203125 41.765625 -71.703125 41.296875 -72.296875 C 40.828125 -72.898438 40.328125 -73.5 39.796875 -74.09375 C 39.265625 -74.695312 38.734375 -75.132812 38.203125 -75.40625 C 37.671875 -75.664062 37.035156 -75.757812 36.296875 -75.6875 C 35.566406 -75.625 34.800781 -75.59375 34 -75.59375 C 33.195312 -75.59375 32.425781 -75.625 31.6875 -75.6875 C 30.957031 -75.757812 30.328125 -76.0625 29.796875 -76.59375 C 29.398438 -77 29.132812 -77.5 29 -78.09375 C 28.863281 -78.695312 28.796875 -79.332031 28.796875 -80 C 28.929688 -81.332031 29.628906 -82.628906 30.890625 -83.890625 C 32.160156 -85.160156 33.59375 -86.257812 35.1875 -87.1875 C 36.789062 -88.125 38.394531 -88.828125 40 -89.296875 C 41.601562 -89.765625 42.800781 -89.863281 43.59375 -89.59375 Z M 51.59375 -78 C 50.394531 -80 50.128906 -81.832031 50.796875 -83.5 C 51.460938 -85.164062 52.492188 -86.429688 53.890625 -87.296875 C 55.296875 -88.160156 56.765625 -88.59375 58.296875 -88.59375 C 59.828125 -88.59375 60.796875 -87.925781 61.203125 -86.59375 C 61.460938 -85.53125 61.328125 -84.234375 60.796875 -82.703125 C 60.265625 -81.171875 59.5 -79.800781 58.5 -78.59375 C 57.5 -77.394531 56.363281 -76.628906 55.09375 -76.296875 C 53.832031 -75.960938 52.664062 -76.53125 51.59375 -78 Z M 41 -92.203125 C 39.53125 -92.734375 38.59375 -93.796875 38.1875 -95.390625 C 37.789062 -96.992188 37.863281 -98.664062 38.40625 -100.40625 C 38.53125 -101.070312 38.859375 -101.800781 39.390625 -102.59375 C 39.929688 -103.394531 40.535156 -104.0625 41.203125 -104.59375 C 41.867188 -105.132812 42.566406 -105.503906 43.296875 -105.703125 C 44.035156 -105.898438 44.738281 -105.734375 45.40625 -105.203125 C 46.332031 -104.535156 46.828125 -103.398438 46.890625 -101.796875 C 46.960938 -100.203125 46.765625 -98.632812 46.296875 -97.09375 C 45.828125 -95.5625 45.09375 -94.257812 44.09375 -93.1875 C 43.09375 -92.125 42.0625 -91.796875 41 -92.203125 Z M 31.203125 -87.203125 C 29.335938 -86.929688 28.132812 -87.394531 27.59375 -88.59375 C 27.0625 -89.800781 26.894531 -91.171875 27.09375 -92.703125 C 27.300781 -94.234375 27.800781 -95.734375 28.59375 -97.203125 C 29.394531 -98.671875 30.265625 -99.601562 31.203125 -100 C 32.398438 -100.53125 33.5 -100.226562 34.5 -99.09375 C 35.5 -97.96875 36.164062 -96.601562 36.5 -95 C 36.832031 -93.394531 36.628906 -91.789062 35.890625 -90.1875 C 35.160156 -88.59375 33.597656 -87.597656 31.203125 -87.203125 Z M 31.203125 -87.203125 "/></g></g></g><g fill="#000000" fill-opacity="1"><g transform="translate(383.999984, 661.465236)"><g><path d="M 81.3125 -8.046875 C 86.332031 -8.222656 90.097656 -6.75 92.609375 -3.625 C 95.128906 -0.507812 96.429688 2.90625 96.515625 6.625 C 96.597656 10.34375 95.425781 13.804688 93 17.015625 C 90.582031 20.222656 86.945312 21.910156 82.09375 22.078125 C 68.238281 22.429688 55.984375 20.875 45.328125 17.40625 C 34.679688 13.9375 25.847656 8.78125 18.828125 1.9375 C 11.816406 -4.894531 6.707031 -13.289062 3.5 -23.25 C 0.300781 -33.207031 -0.691406 -44.597656 0.515625 -57.421875 C 1.734375 -70.054688 5.023438 -80.660156 10.390625 -89.234375 C 15.765625 -97.804688 22.085938 -104.429688 29.359375 -109.109375 C 36.628906 -113.785156 44.332031 -116.644531 52.46875 -117.6875 C 60.613281 -118.726562 68.148438 -118.117188 75.078125 -115.859375 C 82.003906 -113.609375 87.71875 -109.753906 92.21875 -104.296875 C 96.726562 -98.847656 98.984375 -91.96875 98.984375 -83.65625 C 98.984375 -76.894531 97.164062 -70.613281 93.53125 -64.8125 C 89.894531 -59.007812 85.476562 -53.945312 80.28125 -49.625 C 77.15625 -46.851562 73.644531 -44.253906 69.75 -41.828125 C 65.851562 -39.398438 61.867188 -37.234375 57.796875 -35.328125 C 53.734375 -33.421875 49.707031 -31.816406 45.71875 -30.515625 C 41.738281 -29.222656 37.929688 -28.226562 34.296875 -27.53125 C 36.203125 -23.550781 38.796875 -20.257812 42.078125 -17.65625 C 45.367188 -15.0625 49.09375 -13.03125 53.25 -11.5625 C 57.414062 -10.09375 61.878906 -9.097656 66.640625 -8.578125 C 71.398438 -8.054688 76.289062 -7.878906 81.3125 -8.046875 Z M 82.09375 -70.921875 C 81.925781 -73.003906 80.710938 -74.347656 78.453125 -74.953125 C 76.203125 -75.554688 73.863281 -75.507812 71.4375 -74.8125 C 69.019531 -74.125 66.988281 -72.695312 65.34375 -70.53125 C 63.695312 -68.363281 63.390625 -65.550781 64.421875 -62.09375 C 65.296875 -59.488281 66.726562 -58.144531 68.71875 -58.0625 C 70.707031 -57.976562 72.695312 -58.628906 74.6875 -60.015625 C 76.675781 -61.398438 78.40625 -63.175781 79.875 -65.34375 C 81.351562 -67.507812 82.09375 -69.367188 82.09375 -70.921875 Z M 78.453125 -94.828125 C 76.898438 -95.691406 74.992188 -95.644531 72.734375 -94.6875 C 70.484375 -93.738281 68.492188 -92.351562 66.765625 -90.53125 C 65.035156 -88.71875 63.78125 -86.769531 63 -84.6875 C 62.21875 -82.613281 62.4375 -80.96875 63.65625 -79.75 C 65.382812 -78.019531 67.457031 -77.457031 69.875 -78.0625 C 72.300781 -78.675781 74.554688 -79.9375 76.640625 -81.84375 C 77.503906 -82.53125 78.28125 -83.476562 78.96875 -84.6875 C 79.664062 -85.90625 80.144531 -87.160156 80.40625 -88.453125 C 80.664062 -89.753906 80.664062 -91.007812 80.40625 -92.21875 C 80.144531 -93.4375 79.492188 -94.304688 78.453125 -94.828125 Z M 53.78125 -100.546875 C 52.394531 -98.117188 51.65625 -95.648438 51.5625 -93.140625 C 51.476562 -90.628906 52.390625 -88.765625 54.296875 -87.546875 C 55.859375 -86.515625 57.546875 -86.601562 59.359375 -87.8125 C 61.179688 -89.019531 62.785156 -90.660156 64.171875 -92.734375 C 65.554688 -94.816406 66.507812 -97.023438 67.03125 -99.359375 C 67.550781 -101.703125 67.289062 -103.566406 66.25 -104.953125 C 65.382812 -105.992188 64.390625 -106.515625 63.265625 -106.515625 C 62.140625 -106.515625 60.925781 -106.253906 59.625 -105.734375 C 58.320312 -105.210938 57.148438 -104.472656 56.109375 -103.515625 C 55.078125 -102.566406 54.300781 -101.578125 53.78125 -100.546875 Z M 42.859375 -102.875 C 41.304688 -102.707031 39.617188 -101.671875 37.796875 -99.765625 C 35.984375 -97.859375 34.597656 -95.820312 33.640625 -93.65625 C 32.691406 -91.488281 32.429688 -89.410156 32.859375 -87.421875 C 33.296875 -85.429688 34.898438 -84.265625 37.671875 -83.921875 C 41.304688 -83.566406 44.03125 -84.382812 45.84375 -86.375 C 47.664062 -88.375 48.707031 -90.671875 48.96875 -93.265625 C 49.226562 -95.859375 48.796875 -98.195312 47.671875 -100.28125 C 46.546875 -102.363281 44.941406 -103.226562 42.859375 -102.875 Z M 31.4375 -68.84375 C 31.957031 -67.800781 32.734375 -67.0625 33.765625 -66.625 C 34.804688 -66.195312 35.929688 -65.851562 37.140625 -65.59375 C 38.359375 -65.332031 39.53125 -65.070312 40.65625 -64.8125 C 41.78125 -64.550781 42.691406 -64.164062 43.390625 -63.65625 C 44.078125 -62.957031 44.679688 -62.046875 45.203125 -60.921875 C 45.722656 -59.796875 46.242188 -58.710938 46.765625 -57.671875 C 47.285156 -56.628906 47.890625 -55.71875 48.578125 -54.9375 C 49.273438 -54.164062 50.144531 -53.863281 51.1875 -54.03125 C 52.21875 -54.03125 53.253906 -54.289062 54.296875 -54.8125 C 56.546875 -56.03125 58.144531 -58.023438 59.09375 -60.796875 C 60.050781 -63.566406 60.613281 -66.421875 60.78125 -69.359375 C 60.957031 -72.304688 60.695312 -75.035156 60 -77.546875 C 59.3125 -80.054688 58.363281 -81.742188 57.15625 -82.609375 C 56.113281 -83.304688 54.289062 -83.609375 51.6875 -83.515625 C 49.09375 -83.429688 46.410156 -83.039062 43.640625 -82.34375 C 40.867188 -81.65625 38.3125 -80.617188 35.96875 -79.234375 C 33.632812 -77.847656 32.125 -76.203125 31.4375 -74.296875 C 30.570312 -72.390625 30.570312 -70.570312 31.4375 -68.84375 Z M 31.4375 -68.84375 "/></g></g></g><g fill="#000000" fill-opacity="1"><g transform="translate(493.375143, 661.465236)"><g><path d="M 124.703125 -55.078125 C 126.953125 -50.222656 126.78125 -45.457031 124.1875 -40.78125 L 119.25 22.078125 C 119.25 27.097656 117.6875 30.820312 114.5625 33.25 C 111.445312 35.675781 107.984375 36.890625 104.171875 36.890625 C 100.367188 36.890625 96.90625 35.675781 93.78125 33.25 C 90.664062 30.820312 89.109375 27.097656 89.109375 22.078125 L 91.1875 -11.171875 C 76.8125 -1.296875 64.253906 4.804688 53.515625 7.140625 C 42.773438 9.484375 33.722656 9.398438 26.359375 6.890625 C 19.003906 4.378906 13.25 -0.078125 9.09375 -6.484375 C 4.9375 -12.898438 2.25 -20.003906 1.03125 -27.796875 C -0.175781 -35.585938 -0.00390625 -43.507812 1.546875 -51.5625 C 3.109375 -59.625 5.882812 -66.597656 9.875 -72.484375 C 14.550781 -79.234375 20.351562 -84.425781 27.28125 -88.0625 C 34.207031 -91.707031 41.609375 -94.09375 49.484375 -95.21875 C 57.367188 -96.34375 65.335938 -96.296875 73.390625 -95.078125 C 81.441406 -93.867188 88.847656 -91.707031 95.609375 -88.59375 C 95.429688 -96.382812 95.125 -103.65625 94.6875 -110.40625 C 94.257812 -117.164062 93.351562 -123.054688 91.96875 -128.078125 C 90.582031 -132.929688 87.378906 -136.394531 82.359375 -138.46875 C 77.335938 -140.550781 71.925781 -141.242188 66.125 -140.546875 C 60.320312 -139.859375 54.953125 -137.910156 50.015625 -134.703125 C 45.078125 -131.492188 42.175781 -127.035156 41.3125 -121.328125 C 40.445312 -116.472656 38.28125 -113.09375 34.8125 -111.1875 C 31.34375 -109.28125 27.75 -108.628906 24.03125 -109.234375 C 20.3125 -109.847656 17.0625 -111.625 14.28125 -114.5625 C 11.507812 -117.507812 10.5625 -121.410156 11.4375 -126.265625 C 12.988281 -135.265625 16.445312 -142.96875 21.8125 -149.375 C 27.1875 -155.789062 33.550781 -160.769531 40.90625 -164.3125 C 48.269531 -167.863281 56.148438 -169.984375 64.546875 -170.671875 C 72.953125 -171.367188 80.960938 -170.550781 88.578125 -168.21875 C 96.203125 -165.882812 102.957031 -162.03125 108.84375 -156.65625 C 114.738281 -151.289062 118.8125 -144.273438 121.0625 -135.609375 C 123.664062 -125.390625 125.140625 -113.09375 125.484375 -98.71875 C 125.828125 -84.34375 125.566406 -69.796875 124.703125 -55.078125 Z M 65.734375 -76.640625 C 63.472656 -76.296875 61.5625 -74.910156 60 -72.484375 C 58.445312 -70.054688 57.320312 -67.328125 56.625 -64.296875 C 55.9375 -61.265625 55.894531 -58.492188 56.5 -55.984375 C 57.113281 -53.472656 58.457031 -51.957031 60.53125 -51.4375 C 63.125 -50.75 65.460938 -51.398438 67.546875 -53.390625 C 69.628906 -55.378906 71.1875 -57.847656 72.21875 -60.796875 C 72.570312 -62.003906 72.75 -63.5625 72.75 -65.46875 C 72.75 -67.375 72.488281 -69.148438 71.96875 -70.796875 C 71.445312 -72.441406 70.664062 -73.867188 69.625 -75.078125 C 68.582031 -76.296875 67.285156 -76.816406 65.734375 -76.640625 Z M 46.5 -78.71875 C 45.113281 -79.238281 43.8125 -79.109375 42.59375 -78.328125 C 41.382812 -77.546875 40.304688 -76.460938 39.359375 -75.078125 C 38.410156 -73.691406 37.71875 -72.175781 37.28125 -70.53125 C 36.84375 -68.882812 36.625 -67.457031 36.625 -66.25 C 36.976562 -62.78125 37.890625 -59.703125 39.359375 -57.015625 C 40.828125 -54.335938 43.035156 -53 45.984375 -53 C 48.066406 -53 49.671875 -54.207031 50.796875 -56.625 C 51.921875 -59.050781 52.523438 -61.78125 52.609375 -64.8125 C 52.691406 -67.84375 52.210938 -70.742188 51.171875 -73.515625 C 50.140625 -76.285156 48.582031 -78.019531 46.5 -78.71875 Z M 24.15625 -61.3125 C 22.769531 -59.925781 21.773438 -57.71875 21.171875 -54.6875 C 20.566406 -51.65625 20.523438 -48.707031 21.046875 -45.84375 C 21.566406 -42.988281 22.648438 -40.695312 24.296875 -38.96875 C 25.941406 -37.238281 28.320312 -37.066406 31.4375 -38.453125 C 35.414062 -40.523438 37.617188 -43.207031 38.046875 -46.5 C 38.484375 -49.789062 37.96875 -52.820312 36.5 -55.59375 C 35.03125 -58.363281 33.082031 -60.441406 30.65625 -61.828125 C 28.226562 -63.210938 26.0625 -63.039062 24.15625 -61.3125 Z M 67.546875 -20 C 68.929688 -22.601562 69.234375 -25.632812 68.453125 -29.09375 C 67.671875 -32.5625 66.367188 -35.851562 64.546875 -38.96875 C 62.734375 -42.082031 60.613281 -44.675781 58.1875 -46.75 C 55.769531 -48.832031 53.691406 -49.875 51.953125 -49.875 C 50.398438 -49.875 48.367188 -49.007812 45.859375 -47.28125 C 43.347656 -45.550781 40.921875 -43.382812 38.578125 -40.78125 C 36.242188 -38.1875 34.335938 -35.414062 32.859375 -32.46875 C 31.390625 -29.53125 30.914062 -26.847656 31.4375 -24.421875 C 31.957031 -21.648438 33.171875 -19.832031 35.078125 -18.96875 C 36.285156 -18.445312 37.535156 -18.269531 38.828125 -18.4375 C 40.128906 -18.613281 41.472656 -18.960938 42.859375 -19.484375 C 44.242188 -20.003906 45.585938 -20.523438 46.890625 -21.046875 C 48.191406 -21.566406 49.363281 -21.738281 50.40625 -21.5625 C 51.613281 -21.382812 52.863281 -20.90625 54.15625 -20.125 C 55.457031 -19.351562 56.710938 -18.578125 57.921875 -17.796875 C 59.140625 -17.015625 60.351562 -16.453125 61.5625 -16.109375 C 62.78125 -15.765625 63.910156 -16.023438 64.953125 -16.890625 C 65.816406 -17.578125 66.679688 -18.613281 67.546875 -20 Z M 86.25 -44.421875 C 87.113281 -48.929688 86.679688 -52.3125 84.953125 -54.5625 C 83.566406 -56.632812 81.488281 -57.238281 78.71875 -56.375 C 75.945312 -55.507812 73.566406 -53.90625 71.578125 -51.5625 C 69.585938 -49.226562 68.460938 -46.414062 68.203125 -43.125 C 67.941406 -39.832031 69.539062 -36.71875 73 -33.78125 C 74.726562 -32.382812 76.375 -31.816406 77.9375 -32.078125 C 79.5 -32.335938 80.84375 -33.03125 81.96875 -34.15625 C 83.09375 -35.289062 84 -36.804688 84.6875 -38.703125 C 85.382812 -40.609375 85.90625 -42.515625 86.25 -44.421875 Z M 86.25 -44.421875 "/></g></g></g><g fill="#000000" fill-opacity="1"><g transform="translate(115.409762, 665.480659)"><g><path d="M 289.71875 -225.640625 C 293.125 -208.867188 291.289062 -193.734375 284.21875 -180.234375 C 277.144531 -166.742188 267.382812 -154.753906 254.9375 -144.265625 C 242.488281 -133.785156 228.660156 -124.875 213.453125 -117.53125 C 198.253906 -110.195312 184.101562 -104.4375 171 -100.25 C 180.175781 -82.945312 189.804688 -65.972656 199.890625 -49.328125 C 209.984375 -32.691406 221.054688 -16.90625 233.109375 -1.96875 C 237.046875 3.007812 238.6875 8.644531 238.03125 14.9375 C 237.375 21.226562 234.554688 26.335938 229.578125 30.265625 C 224.597656 34.203125 219.023438 35.84375 212.859375 35.1875 C 206.703125 34.53125 201.53125 31.710938 197.34375 26.734375 C 182.664062 8.648438 169.625 -10.347656 158.21875 -30.265625 C 146.820312 -50.179688 135.617188 -70.097656 124.609375 -90.015625 L 114.78125 -110.46875 C 114.519531 -113.082031 114.519531 -115.703125 114.78125 -118.328125 L 113.609375 -118.328125 C 110.722656 -102.859375 108.953125 -87.984375 108.296875 -73.703125 C 107.640625 -59.421875 107.050781 -46.910156 106.53125 -36.171875 C 106.269531 -30.398438 106.070312 -25.285156 105.9375 -20.828125 C 105.8125 -16.378906 105.484375 -12.710938 104.953125 -9.828125 C 104.171875 -2.753906 101.421875 2.414062 96.703125 5.6875 C 91.984375 8.96875 86.875 10.476562 81.375 10.21875 C 75.875 9.957031 70.894531 7.925781 66.4375 4.125 C 61.976562 0.320312 59.75 -5.113281 59.75 -12.1875 C 59.226562 -49.664062 59.554688 -87.925781 60.734375 -126.96875 C 61.910156 -166.019531 63.550781 -204.804688 65.65625 -243.328125 C 65.914062 -248.304688 65.585938 -251.1875 64.671875 -251.96875 C 63.753906 -252.757812 61.851562 -252.632812 58.96875 -251.59375 C 56.082031 -250.800781 53.195312 -249.289062 50.3125 -247.0625 C 47.4375 -244.84375 44.945312 -241.894531 42.84375 -238.21875 C 38.914062 -231.9375 33.9375 -228.398438 27.90625 -227.609375 C 21.882812 -226.828125 16.445312 -227.941406 11.59375 -230.953125 C 6.75 -233.960938 3.273438 -238.347656 1.171875 -244.109375 C -0.921875 -249.878906 0 -255.910156 3.9375 -262.203125 C 12.582031 -275.828125 23.128906 -285.519531 35.578125 -291.28125 C 48.023438 -297.050781 60.015625 -299.019531 71.546875 -297.1875 C 83.078125 -295.351562 92.769531 -289.71875 100.625 -280.28125 C 108.488281 -270.851562 112.03125 -257.75 111.25 -240.96875 L 110.859375 -232.328125 C 119.503906 -243.335938 129.59375 -252.578125 141.125 -260.046875 C 152.65625 -267.515625 164.644531 -273.082031 177.09375 -276.75 C 189.539062 -280.414062 201.921875 -282.25 214.234375 -282.25 C 226.554688 -282.25 237.894531 -280.148438 248.25 -275.953125 C 258.601562 -271.765625 267.445312 -265.476562 274.78125 -257.09375 C 282.125 -248.707031 287.101562 -238.222656 289.71875 -225.640625 Z M 148.984375 -232.328125 C 146.890625 -229.703125 145.253906 -226.882812 144.078125 -223.875 C 142.898438 -220.863281 142.3125 -218.046875 142.3125 -215.421875 C 142.3125 -212.804688 143.03125 -210.515625 144.46875 -208.546875 C 145.90625 -206.578125 148.460938 -205.332031 152.140625 -204.8125 C 159.210938 -204.289062 164.453125 -206.054688 167.859375 -210.109375 C 171.265625 -214.171875 173.160156 -218.691406 173.546875 -223.671875 C 173.941406 -228.648438 173.023438 -233.171875 170.796875 -237.234375 C 168.578125 -241.296875 165.5 -242.9375 161.5625 -242.15625 C 159.46875 -241.632812 157.375 -240.519531 155.28125 -238.8125 C 153.1875 -237.113281 151.085938 -234.953125 148.984375 -232.328125 Z M 189.484375 -147.421875 C 192.628906 -149.515625 195.050781 -153.050781 196.75 -158.03125 C 198.457031 -163.007812 199.375 -168.316406 199.5 -173.953125 C 199.632812 -179.585938 199.242188 -184.828125 198.328125 -189.671875 C 197.410156 -194.523438 196.035156 -197.867188 194.203125 -199.703125 C 192.097656 -201.535156 188.554688 -202.582031 183.578125 -202.84375 C 178.597656 -203.101562 173.289062 -202.507812 167.65625 -201.0625 C 162.019531 -199.625 156.84375 -197.398438 152.125 -194.390625 C 147.414062 -191.378906 144.40625 -187.515625 143.09375 -182.796875 C 142.300781 -180.171875 142.039062 -177.941406 142.3125 -176.109375 C 142.570312 -174.015625 143.617188 -172.507812 145.453125 -171.59375 C 147.285156 -170.675781 149.316406 -170.019531 151.546875 -169.625 C 153.773438 -169.226562 156.066406 -168.769531 158.421875 -168.25 C 160.785156 -167.726562 162.75 -166.8125 164.3125 -165.5 C 165.625 -164.445312 166.738281 -162.9375 167.65625 -160.96875 C 168.570312 -159.007812 169.554688 -156.914062 170.609375 -154.6875 C 171.660156 -152.457031 172.773438 -150.488281 173.953125 -148.78125 C 175.128906 -147.082031 176.765625 -145.84375 178.859375 -145.0625 C 182.796875 -144.269531 186.335938 -145.054688 189.484375 -147.421875 Z M 185.9375 -211.09375 C 189.082031 -209.257812 192.421875 -209.519531 195.953125 -211.875 C 199.492188 -214.238281 202.578125 -217.453125 205.203125 -221.515625 C 207.828125 -225.578125 209.597656 -229.898438 210.515625 -234.484375 C 211.429688 -239.078125 210.835938 -242.8125 208.734375 -245.6875 C 207.160156 -247.789062 205.128906 -248.773438 202.640625 -248.640625 C 200.148438 -248.503906 197.59375 -247.71875 194.96875 -246.28125 C 192.351562 -244.84375 190 -243.070312 187.90625 -240.96875 C 185.8125 -238.875 184.367188 -236.910156 183.578125 -235.078125 C 181.484375 -230.617188 180.4375 -226.03125 180.4375 -221.3125 C 180.4375 -216.601562 182.269531 -213.195312 185.9375 -211.09375 Z M 233.109375 -226.4375 C 229.960938 -228.007812 226.226562 -227.8125 221.90625 -225.84375 C 217.582031 -223.875 213.71875 -221.117188 210.3125 -217.578125 C 206.90625 -214.046875 204.546875 -210.25 203.234375 -206.1875 C 201.921875 -202.125 202.445312 -198.910156 204.8125 -196.546875 C 208.21875 -193.140625 212.34375 -192.09375 217.1875 -193.40625 C 222.039062 -194.71875 226.429688 -197.207031 230.359375 -200.875 C 231.929688 -202.1875 233.304688 -204.085938 234.484375 -206.578125 C 235.671875 -209.066406 236.523438 -211.617188 237.046875 -214.234375 C 237.566406 -216.859375 237.566406 -219.285156 237.046875 -221.515625 C 236.523438 -223.742188 235.210938 -225.382812 233.109375 -226.4375 Z M 205.203125 -163.53125 C 207.035156 -158.289062 209.914062 -155.734375 213.84375 -155.859375 C 217.78125 -155.992188 221.644531 -157.4375 225.4375 -160.1875 C 229.238281 -162.9375 232.515625 -166.410156 235.265625 -170.609375 C 238.023438 -174.804688 239.273438 -178.472656 239.015625 -181.609375 C 238.753906 -185.546875 236.394531 -188.101562 231.9375 -189.28125 C 227.476562 -190.457031 222.890625 -190.257812 218.171875 -188.6875 C 213.453125 -187.113281 209.519531 -184.226562 206.375 -180.03125 C 203.238281 -175.84375 202.847656 -170.34375 205.203125 -163.53125 Z M 205.203125 -163.53125 "/></g></g></g></svg>