<svg xmlns="http://www.w3.org/2000/svg" xmlns:xlink="http://www.w3.org/1999/xlink" width="500" zoomAndPan="magnify" viewBox="0 0 375 374.999991" height="500" preserveAspectRatio="xMidYMid meet" version="1.0"><defs><clipPath id="9d8daace83"><path d="M 9.203125 0 L 364 0 L 364 375 L 9.203125 375 Z M 9.203125 0 " clip-rule="nonzero"/></clipPath></defs><path fill="#9468ac" d="M 47.816406 322.519531 C 57.132812 318.617188 66.464844 314.757812 75.808594 310.902344 C 72.9375 308.132812 61.945312 296.410156 64.980469 281.980469 C 67.089844 271.945312 73.136719 264.648438 77.574219 260.457031 C 64.816406 262.390625 51.84375 262.46875 38.929688 262.558594 C 32.640625 262.589844 26.335938 262.636719 20.046875 262.679688 C 20.042969 262.679688 20.042969 262.679688 20.042969 262.679688 C 17.097656 262.6875 14.152344 262.710938 11.207031 262.734375 C 10.921875 262.734375 10.632812 262.738281 10.34375 262.738281 C 10.566406 274.765625 13.507812 286.871094 18.554688 297.808594 C 23.441406 308.382812 30.121094 317.96875 37.929688 326.667969 C 38.210938 326.546875 38.492188 326.429688 38.777344 326.3125 C 41.785156 325.039062 44.789062 323.78125 47.808594 322.523438 C 47.8125 322.519531 47.8125 322.519531 47.816406 322.519531 Z M 47.816406 322.519531 " fill-opacity="1" fill-rule="nonzero"/><path fill="#eb7474" d="M 347.832031 84.082031 C 351.800781 83.992188 355.808594 83.902344 359.820312 83.828125 C 360.109375 83.824219 360.398438 83.816406 360.6875 83.8125 C 360.664062 84.246094 360.628906 84.675781 360.59375 85.109375 C 359.609375 96.507812 354.421875 106.890625 352.027344 117.984375 C 349.605469 129.230469 353.445312 138.257812 355.441406 149.160156 C 356.46875 154.773438 358.105469 160.519531 359.566406 166.300781 C 359.246094 166.210938 358.925781 166.121094 358.605469 166.035156 C 354.097656 164.789062 349.582031 163.53125 345.078125 162.042969 C 345.023438 162.027344 344.984375 162.011719 344.933594 161.992188 C 344.929688 161.992188 344.929688 161.992188 344.929688 161.992188 C 332.039062 157.734375 319.289062 153.019531 306.605469 148.191406 C 306.605469 148.1875 306.601562 148.1875 306.601562 148.1875 C 311.351562 144.46875 306.671875 96.097656 305.546875 85.160156 C 305.546875 85.160156 305.550781 85.160156 305.550781 85.160156 C 317.664062 84.816406 332.445312 84.417969 347.832031 84.082031 Z M 254.589844 153.917969 C 254.589844 153.917969 254.320312 154.507812 253.828125 155.578125 C 249.707031 164.421875 229.617188 205.957031 211.097656 216.296875 C 208.519531 217.738281 206.136719 219.3125 203.925781 220.976562 C 188.320312 232.707031 181.320312 248.988281 176.171875 255.875 C 174.347656 258.316406 173.371094 259.753906 172.90625 260.566406 L 156.4375 235.011719 L 155.066406 232.882812 C 155.1875 232.703125 155.304688 232.527344 155.421875 232.351562 C 160.984375 224.058594 165.492188 216.914062 164.304688 213.445312 C 164.234375 213.234375 164.152344 213.03125 164.066406 212.835938 C 164.519531 211.570312 164.761719 210.300781 164.523438 209.25 C 164.324219 208.363281 163.800781 207.671875 163.011719 207.25 C 162.144531 206.789062 161.210938 206.710938 160.242188 207.019531 C 157.992188 207.742188 156.097656 210.445312 155.128906 212.070312 L 153.207031 209.480469 L 156.375 202.253906 L 154.792969 201.558594 L 151.21875 209.707031 L 153.777344 213.148438 C 151.355469 214.535156 148.667969 216.535156 145.910156 218.667969 L 144.074219 215.820312 C 144.074219 215.820312 146.980469 183.839844 162.988281 173.386719 C 172.917969 166.914062 183.476562 160.777344 191.292969 155.4375 C 193.246094 155.15625 195.109375 154.246094 196.460938 153.113281 C 198.097656 151.738281 199.324219 150.011719 200.351562 148.234375 C 200.894531 147.667969 201.375 147.117188 201.769531 146.589844 C 206.84375 139.804688 213.511719 127.191406 213.511719 127.191406 C 213.511719 127.191406 225.464844 132.191406 236.523438 138.515625 C 245.097656 143.421875 253.121094 149.125 254.589844 153.917969 Z M 216.101562 175.421875 C 211.851562 165.699219 199.085938 161.894531 187.585938 166.925781 C 176.089844 171.957031 170.210938 183.921875 174.457031 193.648438 C 178.703125 203.371094 191.46875 207.175781 202.96875 202.144531 C 214.46875 197.113281 220.347656 185.148438 216.101562 175.421875 Z M 241.179688 154.816406 C 240.980469 153.929688 240.457031 153.238281 239.667969 152.816406 C 238.796875 152.351562 237.863281 152.277344 236.898438 152.585938 C 234.648438 153.308594 232.753906 156.011719 231.785156 157.636719 L 229.863281 155.046875 L 233.03125 147.820312 L 231.445312 147.125 L 227.875 155.273438 L 232.042969 160.878906 L 232.667969 159.617188 C 233.300781 158.339844 235.386719 154.890625 237.425781 154.234375 C 237.945312 154.070312 238.402344 154.101562 238.855469 154.34375 C 239.203125 154.53125 239.402344 154.792969 239.492188 155.195312 C 239.976562 157.34375 237.222656 161.679688 236.117188 163.171875 L 237.507812 164.199219 C 237.960938 163.589844 241.921875 158.117188 241.179688 154.816406 Z M 162.839844 209.628906 C 162.746094 209.226562 162.550781 208.964844 162.199219 208.777344 C 161.746094 208.535156 161.292969 208.5 160.769531 208.667969 C 160.207031 208.847656 159.640625 209.25 159.101562 209.753906 C 159.808594 209.6875 160.59375 209.734375 161.367188 210.035156 C 161.90625 210.246094 162.386719 210.558594 162.8125 210.96875 C 162.902344 210.46875 162.925781 210.011719 162.839844 209.628906 Z M 162.839844 209.628906 " fill-opacity="1" fill-rule="nonzero"/><path fill="#fece6b" d="M 219.519531 117.832031 C 219.371094 117.660156 219.171875 117.570312 218.96875 117.546875 C 225.042969 111.585938 232.171875 106.753906 238.058594 106.726562 C 250.230469 106.671875 244.957031 130.242188 239.054688 136.023438 C 238.371094 136.691406 237.507812 137.539062 236.523438 138.515625 C 225.464844 132.191406 213.507812 127.191406 213.507812 127.191406 C 213.507812 127.191406 206.84375 139.804688 201.769531 146.589844 C 201.375 147.117188 200.894531 147.667969 200.347656 148.234375 C 200.988281 147.128906 201.550781 146.007812 202.082031 144.9375 L 202.121094 144.859375 C 202.285156 144.535156 202.449219 144.207031 202.613281 143.878906 C 203.097656 142.980469 203.5625 142.070312 203.976562 141.167969 C 208.109375 133.03125 212.640625 124.964844 219.433594 119.050781 C 219.792969 118.738281 219.832031 118.191406 219.519531 117.832031 Z M 153.664062 234.996094 C 154.585938 234.96875 155.507812 234.976562 156.4375 235.011719 L 155.066406 232.882812 C 154.589844 233.589844 154.109375 234.3125 153.664062 234.996094 Z M 82.660156 256.308594 C 82.660156 256.308594 80.457031 257.730469 77.574219 260.457031 C 64.816406 262.390625 51.84375 262.46875 38.929688 262.558594 C 32.640625 262.589844 26.335938 262.636719 20.046875 262.679688 C 19.359375 250.589844 21.472656 238.472656 27.046875 227.746094 C 35.375 211.722656 52.820312 199.824219 48.136719 179.84375 C 45.25 167.527344 36.640625 157.546875 35.164062 144.984375 C 32.5 122.300781 34.3125 95.679688 47.699219 76.402344 C 55.242188 65.542969 65.398438 56.75 76.085938 48.972656 C 81.015625 45.386719 86.109375 41.96875 91.644531 39.410156 C 106.871094 32.375 124.878906 32.207031 140.957031 36.25 C 146.90625 37.75 151.710938 41.707031 157.273438 43.953125 C 164.253906 46.761719 173.601562 48.402344 180.785156 45.410156 C 187.933594 42.429688 193.246094 34.476562 199.671875 29.984375 C 214.882812 19.355469 233.4375 13.332031 251.628906 12.527344 C 252.445312 12.488281 253.261719 12.464844 254.082031 12.449219 C 270.347656 12.144531 286.640625 15.980469 301.152344 23.3125 C 314.148438 29.875 329.546875 40.628906 338.242188 52.46875 C 344.871094 61.5 347.667969 72.796875 347.835938 84.082031 C 332.445312 84.417969 317.664062 84.816406 305.550781 85.164062 C 305.40625 83.761719 305.320312 82.972656 305.320312 82.972656 C 305.320312 82.972656 288.566406 86.132812 276.929688 83.804688 C 265.292969 81.484375 250.925781 68.886719 235.773438 59.082031 C 232.527344 56.984375 229.300781 55.660156 226.238281 54.871094 C 226.023438 54.542969 225.8125 54.214844 225.59375 53.886719 C 225.332031 53.488281 224.796875 53.375 224.398438 53.636719 C 224.136719 53.808594 224.011719 54.097656 224.023438 54.390625 C 213.832031 52.546875 205.929688 56.339844 205.929688 56.339844 C 205.929688 56.339844 197.753906 58.847656 190.707031 64.246094 C 185.992188 67.855469 184.859375 76.230469 184.324219 82.9375 C 183.988281 83.945312 183.726562 84.976562 183.570312 86.027344 C 183.167969 88.683594 182.757812 92.066406 183.160156 94.625 C 183.378906 96.011719 184.078125 97.207031 184.75 98.359375 C 185.097656 98.957031 185.425781 99.519531 185.679688 100.089844 C 185.695312 100.128906 185.722656 100.160156 185.742188 100.195312 C 185.234375 101.777344 184.851562 103.351562 184.621094 104.933594 C 183.621094 111.863281 185.59375 117.820312 190.023438 121.289062 C 186.511719 127.96875 183.445312 134.582031 182.539062 142.65625 C 182.15625 146.046875 182.167969 152.113281 186.542969 154.625 C 187.660156 155.265625 188.867188 155.535156 190.074219 155.535156 C 190.484375 155.535156 190.886719 155.496094 191.292969 155.4375 C 183.476562 160.777344 172.917969 166.914062 162.992188 173.386719 C 146.980469 183.839844 144.074219 215.820312 144.074219 215.820312 L 145.910156 218.667969 C 138.925781 224.070312 131.503906 230.273438 126.863281 229.175781 C 111.382812 225.519531 88.992188 251.734375 92.703125 255.050781 C 86.832031 255.957031 84.566406 256.121094 84.566406 256.121094 Z M 141.558594 173.109375 C 134.128906 170.15625 125.988281 168.859375 118.011719 169.351562 C 117.535156 169.382812 117.175781 169.792969 117.203125 170.269531 C 117.234375 170.746094 117.648438 171.117188 118.121094 171.078125 C 125.84375 170.601562 133.726562 171.855469 140.921875 174.714844 C 141.023438 174.757812 141.132812 174.777344 141.238281 174.777344 C 141.582031 174.777344 141.910156 174.570312 142.042969 174.230469 C 142.21875 173.785156 142.003906 173.28125 141.558594 173.109375 Z M 154.652344 119.476562 C 160.875 126.417969 165.769531 134.339844 169.191406 143.015625 C 169.324219 143.355469 169.652344 143.5625 169.996094 143.5625 C 170.101562 143.5625 170.210938 143.542969 170.3125 143.503906 C 170.757812 143.328125 170.976562 142.824219 170.800781 142.382812 C 167.300781 133.511719 162.300781 125.417969 155.9375 118.320312 C 155.617188 117.964844 155.070312 117.933594 154.71875 118.253906 C 154.359375 118.574219 154.332031 119.121094 154.652344 119.476562 Z M 115.78125 84.378906 C 115.78125 85.574219 116.75 86.542969 117.941406 86.542969 L 128.960938 86.542969 L 128.960938 97.570312 C 128.960938 98.765625 129.925781 99.734375 131.121094 99.734375 C 132.3125 99.734375 133.28125 98.765625 133.28125 97.570312 L 133.28125 86.542969 L 144.300781 86.542969 C 145.492188 86.542969 146.460938 85.574219 146.460938 84.378906 C 146.460938 83.1875 145.492188 82.21875 144.300781 82.21875 L 133.28125 82.21875 L 133.28125 71.191406 C 133.28125 69.996094 132.3125 69.027344 131.121094 69.027344 C 129.925781 69.027344 128.960938 69.996094 128.960938 71.191406 L 128.960938 82.21875 L 117.941406 82.21875 C 116.75 82.21875 115.78125 83.1875 115.78125 84.378906 Z M 94.21875 198.625 C 94.21875 199.820312 95.183594 200.789062 96.378906 200.789062 L 107.394531 200.789062 L 107.394531 211.816406 C 107.394531 213.011719 108.363281 213.980469 109.554688 213.980469 C 110.75 213.980469 111.71875 213.011719 111.71875 211.816406 L 111.71875 200.789062 L 122.734375 200.789062 C 123.929688 200.789062 124.894531 199.820312 124.894531 198.625 C 124.894531 197.429688 123.929688 196.460938 122.734375 196.460938 L 111.71875 196.460938 L 111.71875 185.433594 C 111.71875 184.238281 110.75 183.269531 109.554688 183.269531 C 108.363281 183.269531 107.394531 184.238281 107.394531 185.433594 L 107.394531 196.460938 L 96.378906 196.460938 C 95.183594 196.460938 94.21875 197.429688 94.21875 198.625 Z M 344.929688 161.992188 C 344.929688 161.992188 344.929688 161.992188 344.933594 161.992188 C 348.113281 174.519531 351.972656 187.394531 347.542969 199.546875 C 342.644531 212.984375 331.777344 222.710938 319.269531 229.144531 C 291.535156 243.40625 263.1875 246.988281 249.339844 278.800781 C 246.515625 285.285156 244.679688 292.15625 242.050781 298.726562 C 231.867188 324.183594 215.425781 342.722656 189.464844 352.234375 C 153.527344 365.40625 103.609375 367.242188 71.355469 343.34375 C 62.953125 337.117188 54.941406 330.191406 47.816406 322.519531 C 57.132812 318.617188 66.46875 314.757812 75.808594 310.898438 C 76.234375 311.308594 76.480469 311.523438 76.480469 311.523438 C 76.480469 311.523438 86.871094 309.078125 96.625 307.101562 C 96.316406 307.328125 96.175781 307.730469 96.324219 308.105469 C 96.457031 308.445312 96.785156 308.652344 97.128906 308.652344 C 97.234375 308.652344 97.339844 308.632812 97.445312 308.59375 C 104.300781 305.882812 111.894531 305.953125 117.746094 306.316406 C 119.964844 306.457031 122.222656 306.660156 124.410156 306.855469 C 129.097656 307.273438 133.949219 307.710938 138.753906 307.542969 C 139.230469 307.527344 139.601562 307.125 139.585938 306.648438 C 139.585938 306.640625 139.582031 306.632812 139.582031 306.625 C 150.871094 305.800781 163.757812 302.984375 173.902344 295.921875 C 189.210938 285.261719 198.066406 278.023438 202.175781 274.480469 C 202.101562 274.757812 202.148438 275.058594 202.355469 275.285156 C 202.679688 275.640625 203.226562 275.664062 203.578125 275.339844 C 206.304688 272.847656 207.878906 267.738281 206.3125 264.074219 C 207.941406 262.484375 211.300781 259.761719 211.832031 259.003906 C 212.882812 257.511719 213.84375 255.941406 214.660156 254.304688 C 214.695312 254.339844 214.71875 254.378906 214.757812 254.40625 C 215.148438 254.679688 215.6875 254.585938 215.960938 254.195312 C 218.613281 250.398438 219.148438 247.386719 217.546875 245.238281 C 216.070312 243.253906 213.429688 243.085938 211.988281 243.160156 C 206.765625 243.4375 202.507812 246.621094 198.390625 249.699219 C 194.777344 252.40625 191.039062 255.199219 186.753906 255.878906 L 186.292969 255.949219 C 184.621094 256.214844 182.902344 256.484375 181.179688 256.847656 C 183.179688 253.414062 188.117188 251.402344 190.9375 248.46875 C 195.453125 243.773438 200.800781 238.457031 202.652344 232.058594 C 203.261719 229.949219 205.09375 223.785156 203.925781 220.976562 C 206.136719 219.3125 208.523438 217.742188 211.101562 216.300781 C 229.617188 205.960938 249.707031 164.425781 253.832031 155.582031 C 256.027344 154.535156 258.210938 153.421875 260.335938 152.296875 C 267.402344 148.847656 274.273438 144.894531 280.792969 140.515625 C 281.308594 140.167969 281.953125 139.738281 282.46875 139.152344 C 282.511719 139.105469 282.542969 139.058594 282.582031 139.011719 C 284.109375 139.949219 300.425781 149.851562 306.210938 148.398438 C 306.347656 148.363281 306.476562 148.289062 306.601562 148.191406 C 306.605469 148.191406 306.605469 148.191406 306.609375 148.191406 C 319.289062 153.019531 332.039062 157.734375 344.929688 161.992188 Z M 275.585938 201.609375 C 275.585938 201.011719 275.101562 200.527344 274.503906 200.527344 L 268.996094 200.527344 L 268.996094 195.011719 C 268.996094 194.417969 268.511719 193.933594 267.914062 193.933594 C 267.320312 193.933594 266.835938 194.417969 266.835938 195.011719 L 266.835938 200.527344 L 261.324219 200.527344 C 260.730469 200.527344 260.246094 201.011719 260.246094 201.609375 C 260.246094 202.207031 260.730469 202.691406 261.324219 202.691406 L 266.835938 202.691406 L 266.835938 208.203125 C 266.835938 208.800781 267.320312 209.285156 267.914062 209.285156 C 268.511719 209.285156 268.996094 208.800781 268.996094 208.203125 L 268.996094 202.691406 L 274.503906 202.691406 C 275.101562 202.691406 275.585938 202.207031 275.585938 201.609375 Z M 187.585938 166.925781 C 176.089844 171.957031 170.210938 183.921875 174.457031 193.648438 C 178.703125 203.371094 191.46875 207.175781 202.96875 202.144531 C 214.46875 197.113281 220.347656 185.148438 216.101562 175.421875 C 211.851562 165.699219 199.085938 161.894531 187.585938 166.925781 Z M 162.765625 214.550781 C 162.765625 214.585938 162.773438 214.621094 162.777344 214.65625 C 162.773438 214.617188 162.765625 214.585938 162.765625 214.550781 Z M 156.542969 210.503906 C 156.609375 210.46875 157.703125 209.882812 159.101562 209.753906 C 159.640625 209.25 160.207031 208.847656 160.769531 208.667969 C 161.292969 208.5 161.746094 208.535156 162.199219 208.777344 C 162.550781 208.964844 162.746094 209.226562 162.839844 209.628906 C 162.925781 210.011719 162.90625 210.46875 162.8125 210.964844 C 163.316406 211.453125 163.738281 212.074219 164.066406 212.832031 C 164.519531 211.570312 164.761719 210.300781 164.523438 209.25 C 164.324219 208.363281 163.800781 207.671875 163.011719 207.25 C 162.144531 206.789062 161.210938 206.710938 160.242188 207.019531 C 157.992188 207.742188 156.097656 210.445312 155.128906 212.070312 L 153.207031 209.480469 L 156.375 202.253906 L 154.792969 201.558594 L 151.21875 209.707031 L 153.777344 213.148438 C 154.683594 212.628906 155.550781 212.199219 156.371094 211.882812 C 156.308594 211.820312 156.242188 211.757812 156.199219 211.675781 C 155.972656 211.257812 156.125 210.734375 156.542969 210.503906 Z M 239.667969 152.816406 C 238.796875 152.351562 237.863281 152.277344 236.898438 152.585938 C 234.648438 153.308594 232.753906 156.011719 231.785156 157.636719 L 229.863281 155.046875 L 233.03125 147.820312 L 231.445312 147.125 L 227.875 155.273438 L 232.042969 160.878906 L 232.667969 159.617188 C 233.300781 158.339844 235.386719 154.890625 237.425781 154.234375 C 237.945312 154.070312 238.402344 154.101562 238.855469 154.34375 C 239.203125 154.53125 239.402344 154.792969 239.492188 155.195312 C 239.976562 157.34375 237.222656 161.679688 236.117188 163.171875 L 237.507812 164.199219 C 237.960938 163.589844 241.921875 158.117188 241.179688 154.816406 C 240.980469 153.929688 240.457031 153.238281 239.667969 152.816406 Z M 239.667969 152.816406 " fill-opacity="1" fill-rule="nonzero"/><g clip-path="url(#9d8daace83)"><path fill="#ffffff" d="M 360.402344 166.089844 C 360.050781 164.691406 359.6875 163.296875 359.324219 161.90625 C 358.214844 157.644531 357.066406 153.234375 356.292969 149.003906 C 355.785156 146.234375 355.15625 143.578125 354.550781 141.007812 C 352.777344 133.488281 351.101562 126.386719 352.871094 118.164062 C 353.820312 113.769531 355.242188 109.394531 356.617188 105.164062 C 358.699219 98.75 360.855469 92.117188 361.457031 85.175781 C 361.488281 84.738281 361.527344 84.300781 361.550781 83.871094 C 362.679688 68.027344 359.046875 53.570312 351.320312 43.171875 C 343.089844 32.089844 328.152344 20.476562 311.367188 12.097656 C 295.570312 4.207031 278.015625 0.207031 260.644531 0.527344 C 259.765625 0.542969 258.875 0.570312 257.996094 0.605469 C 237.925781 1.488281 217.765625 8.226562 201.230469 19.578125 C 198.644531 21.355469 196.46875 23.558594 194.363281 25.695312 C 190.980469 29.121094 187.785156 32.359375 183.179688 33.691406 C 175.816406 35.824219 166.003906 35.75 158.171875 33.5 C 155.144531 32.628906 152.507812 31.257812 149.710938 29.808594 C 146.683594 28.234375 143.554688 26.609375 139.929688 25.707031 C 120.773438 20.941406 101.851562 22.148438 86.644531 29.097656 C 80.292969 32.007812 74.597656 35.882812 69.867188 39.289062 C 56.019531 49.25 46.3125 58.527344 39.3125 68.480469 C 22.773438 92.03125 23.722656 124.375 25.761719 141.558594 C 26.652344 149.007812 29.921875 155.683594 33.085938 162.136719 C 35.640625 167.34375 38.28125 172.734375 39.644531 178.492188 C 43.050781 192.832031 35.292969 203.054688 27.082031 213.878906 C 23.554688 218.527344 19.910156 223.335938 17.183594 228.519531 C 11.90625 238.550781 9.242188 250.390625 9.480469 262.753906 C 9.699219 274.65625 12.566406 286.902344 17.769531 298.171875 C 22.402344 308.195312 28.964844 317.976562 37.285156 327.242188 C 44.871094 335.707031 54.128906 343.964844 64.804688 351.78125 C 75.59375 359.6875 84.847656 364.953125 93.917969 368.34375 C 102.679688 371.621094 112.398438 373.601562 123.640625 374.394531 C 126.425781 374.589844 129.230469 374.6875 132.054688 374.6875 C 148.390625 374.6875 165.449219 371.390625 183.929688 364.6875 C 186.867188 363.621094 189.960938 362.574219 192.953125 361.558594 C 208.679688 356.226562 224.945312 350.710938 235.492188 338.011719 C 244.816406 326.792969 247.53125 313.765625 250.15625 301.167969 C 252.378906 290.492188 254.679688 279.449219 260.992188 269.472656 C 265.316406 262.640625 272.085938 256.808594 281.6875 251.644531 C 289.777344 247.296875 298.597656 244.054688 307.125 240.917969 C 314.996094 238.023438 323.132812 235.03125 330.738281 231.164062 C 345.984375 223.421875 356.582031 212.445312 361.386719 199.421875 C 365.457031 188.394531 363.132812 176.90625 360.402344 166.089844 Z M 359.765625 198.820312 C 353.886719 214.75 340.308594 224.363281 329.953125 229.621094 C 322.441406 233.441406 314.351562 236.417969 306.53125 239.292969 C 297.945312 242.449219 289.066406 245.714844 280.867188 250.121094 C 271 255.429688 264.019531 261.457031 259.53125 268.550781 C 253.050781 278.792969 250.71875 289.988281 248.460938 300.816406 C 245.761719 313.777344 243.210938 326.019531 234.164062 336.90625 C 223.925781 349.226562 207.898438 354.664062 192.394531 359.921875 C 189.394531 360.9375 186.296875 361.988281 183.339844 363.0625 C 161.894531 370.84375 142.40625 373.984375 123.761719 372.667969 C 112.6875 371.886719 103.125 369.945312 94.523438 366.726562 C 85.605469 363.390625 76.484375 358.199219 65.824219 350.390625 C 55.339844 342.707031 46.246094 334.609375 38.777344 326.3125 C 38.492188 326.429688 38.210938 326.546875 37.925781 326.667969 C 30.121094 317.972656 23.4375 308.382812 18.554688 297.808594 C 13.507812 286.871094 10.566406 274.765625 10.34375 262.738281 C 10.628906 262.738281 10.917969 262.734375 11.207031 262.734375 C 11.207031 262.730469 11.207031 262.726562 11.207031 262.722656 C 10.976562 250.652344 13.570312 239.101562 18.714844 229.324219 C 21.371094 224.269531 24.976562 219.519531 28.457031 214.925781 C 36.550781 204.257812 44.921875 193.226562 41.328125 178.09375 C 39.917969 172.144531 37.234375 166.667969 34.636719 161.375 C 31.394531 154.757812 28.332031 148.511719 27.480469 141.355469 C 25.46875 124.417969 24.519531 92.554688 40.726562 69.476562 C 47.613281 59.683594 57.191406 50.539062 70.878906 40.695312 C 75.542969 37.335938 81.148438 33.519531 87.363281 30.675781 C 96.230469 26.621094 106.40625 24.570312 117.160156 24.570312 C 124.421875 24.570312 131.945312 25.503906 139.511719 27.386719 C 142.941406 28.238281 145.976562 29.816406 148.914062 31.34375 C 151.660156 32.769531 154.5 34.246094 157.695312 35.164062 C 165.816406 37.496094 176.007812 37.570312 183.660156 35.355469 C 188.695312 33.894531 192.203125 30.34375 195.59375 26.910156 C 197.640625 24.835938 199.761719 22.6875 202.207031 21.003906 C 218.480469 9.835938 238.320312 3.203125 258.066406 2.332031 C 258.933594 2.300781 259.808594 2.273438 260.675781 2.257812 C 277.773438 1.9375 295.046875 5.878906 310.59375 13.648438 C 323.378906 20.027344 340.421875 31.402344 349.933594 44.203125 C 357.414062 54.273438 360.925781 68.316406 359.824219 83.757812 C 359.824219 83.78125 359.820312 83.804688 359.820312 83.828125 C 360.109375 83.824219 360.398438 83.816406 360.6875 83.8125 C 360.660156 84.242188 360.628906 84.675781 360.59375 85.109375 C 359.605469 96.503906 354.421875 106.890625 352.027344 117.980469 C 349.605469 129.230469 353.445312 138.253906 355.441406 149.160156 C 356.46875 154.773438 358.101562 160.519531 359.5625 166.300781 C 359.242188 166.210938 358.921875 166.121094 358.601562 166.035156 C 358.644531 166.191406 358.6875 166.351562 358.726562 166.511719 C 361.390625 177.070312 363.664062 188.257812 359.765625 198.820312 Z M 96.625 307.101562 C 96.683594 307.058594 96.738281 307.011719 96.808594 306.984375 C 103.980469 304.148438 111.820312 304.214844 117.851562 304.589844 C 120.09375 304.730469 122.363281 304.933594 124.5625 305.128906 C 129.199219 305.542969 133.992188 305.96875 138.691406 305.8125 C 139.15625 305.78125 139.550781 306.160156 139.578125 306.625 C 150.867188 305.800781 163.757812 302.984375 173.902344 295.917969 C 189.207031 285.257812 198.066406 278.023438 202.171875 274.480469 C 202.214844 274.324219 202.28125 274.175781 202.410156 274.0625 C 204.8125 271.867188 206.203125 267.039062 204.394531 264.105469 C 202.914062 261.703125 200.546875 262.25 196.820312 263.441406 L 196.207031 263.636719 C 186.207031 266.789062 182.277344 269.695312 178.476562 272.507812 C 176.0625 274.292969 173.777344 275.984375 170.136719 277.546875 C 170.023438 277.59375 169.910156 277.617188 169.796875 277.617188 C 169.460938 277.617188 169.140625 277.417969 169 277.089844 C 168.8125 276.652344 169.015625 276.144531 169.453125 275.957031 C 172.914062 274.472656 175.117188 272.839844 177.449219 271.117188 C 181.183594 268.355469 185.414062 265.222656 195.6875 261.984375 L 196.292969 261.792969 C 199.535156 260.753906 203.570312 259.464844 205.867188 263.199219 C 206.039062 263.476562 206.183594 263.769531 206.3125 264.070312 C 207.9375 262.480469 211.296875 259.757812 211.828125 259.003906 C 212.882812 257.507812 213.839844 255.9375 214.660156 254.304688 C 214.363281 254.011719 214.296875 253.550781 214.542969 253.199219 C 216.71875 250.082031 217.261719 247.753906 216.15625 246.269531 C 215.125 244.882812 212.957031 244.839844 212.074219 244.886719 C 207.375 245.132812 203.515625 248.023438 199.421875 251.082031 C 195.640625 253.914062 191.726562 256.839844 187.019531 257.585938 L 186.558594 257.65625 C 184.234375 258.023438 182.039062 258.367188 179.792969 258.941406 C 178.195312 259.351562 176.746094 260.3125 175.34375 261.246094 C 175.199219 261.34375 175.03125 261.390625 174.867188 261.390625 C 174.585938 261.390625 174.3125 261.253906 174.144531 261.003906 C 173.882812 260.605469 173.992188 260.066406 174.386719 259.804688 C 175.839844 258.839844 177.484375 257.746094 179.367188 257.265625 C 179.96875 257.109375 180.574219 256.972656 181.179688 256.84375 C 183.179688 253.414062 188.117188 251.398438 190.9375 248.464844 C 195.449219 243.769531 200.800781 238.453125 202.648438 232.054688 C 203.257812 229.945312 205.09375 223.78125 203.925781 220.972656 C 188.320312 232.707031 181.320312 248.988281 176.171875 255.875 C 174.347656 258.316406 173.371094 259.75 172.90625 260.566406 L 156.4375 235.007812 C 155.511719 234.972656 154.585938 234.964844 153.664062 234.992188 C 152.542969 236.699219 151.636719 238.171875 151.574219 238.625 C 151.546875 238.84375 151.523438 239.21875 151.488281 239.722656 C 150.960938 247.425781 149.695312 253.644531 147.722656 258.371094 C 154.347656 263.648438 158.535156 272.078125 158.679688 280.550781 C 158.6875 281.027344 158.304688 281.421875 157.828125 281.429688 C 157.824219 281.429688 157.820312 281.429688 157.8125 281.429688 C 157.34375 281.429688 156.957031 281.050781 156.949219 280.578125 C 156.816406 272.757812 153.019531 264.972656 146.984375 260 C 144.925781 264.183594 142.222656 267.007812 138.863281 268.402344 C 138.753906 268.445312 138.644531 268.46875 138.53125 268.46875 C 138.195312 268.46875 137.871094 268.265625 137.734375 267.933594 C 137.550781 267.492188 137.757812 266.984375 138.203125 266.800781 C 144.828125 264.046875 148.71875 254.898438 149.761719 239.605469 C 149.800781 239.066406 149.828125 238.664062 149.855469 238.429688 C 149.96875 237.40625 151.277344 235.421875 153.988281 231.382812 C 157.375 226.332031 162.894531 218.105469 162.777344 214.65625 C 162.773438 214.617188 162.765625 214.582031 162.765625 214.546875 C 162.75 214.351562 162.722656 214.167969 162.667969 214.007812 C 162.25 212.777344 161.601562 211.984375 160.746094 211.648438 C 159.210938 211.046875 157.386719 212.011719 157.371094 212.023438 C 157.03125 212.207031 156.636719 212.128906 156.371094 211.882812 C 155.550781 212.199219 154.683594 212.628906 153.777344 213.148438 C 151.355469 214.53125 148.667969 216.535156 145.910156 218.667969 C 138.925781 224.070312 131.503906 230.273438 126.863281 229.175781 C 111.382812 225.519531 88.992188 251.734375 92.703125 255.050781 C 86.832031 255.957031 84.566406 256.121094 84.566406 256.121094 L 82.664062 256.308594 C 82.664062 256.308594 80.457031 257.730469 77.574219 260.453125 C 73.136719 264.648438 67.089844 271.941406 64.980469 281.976562 C 61.945312 296.410156 72.9375 308.128906 75.808594 310.898438 C 76.230469 311.308594 76.480469 311.523438 76.480469 311.523438 C 76.480469 311.523438 86.871094 309.078125 96.625 307.101562 Z M 185.113281 260.566406 L 185.484375 261.148438 C 185.484375 261.148438 184.066406 262.382812 185.113281 260.566406 Z M 99.253906 291.882812 C 99.183594 291.882812 99.105469 291.875 99.03125 291.855469 C 98.570312 291.734375 98.296875 291.261719 98.417969 290.796875 L 101.253906 280.082031 L 95.613281 272.246094 C 95.335938 271.859375 95.421875 271.316406 95.8125 271.039062 C 96.199219 270.757812 96.738281 270.847656 97.019531 271.234375 L 102.894531 279.402344 C 103.046875 279.613281 103.09375 279.878906 103.027344 280.128906 L 100.089844 291.238281 C 99.988281 291.628906 99.636719 291.882812 99.253906 291.882812 Z M 203.976562 141.167969 C 203.5625 142.070312 203.101562 142.976562 202.613281 143.875 C 203.066406 142.972656 203.519531 142.070312 203.976562 141.167969 Z M 305.316406 82.972656 C 305.316406 82.972656 305.402344 83.761719 305.546875 85.160156 C 306.671875 96.097656 311.351562 144.46875 306.601562 148.1875 C 306.476562 148.285156 306.347656 148.363281 306.207031 148.398438 C 300.425781 149.847656 284.109375 139.949219 282.578125 139.007812 C 283.066406 138.417969 283.394531 137.753906 283.683594 137.117188 C 284.773438 134.734375 285.667969 132.242188 286.339844 129.710938 C 286.460938 129.25 286.1875 128.773438 285.726562 128.652344 C 285.261719 128.53125 284.789062 128.804688 284.667969 129.265625 C 284.019531 131.703125 283.160156 134.101562 282.113281 136.398438 C 281.851562 136.964844 281.566406 137.558594 281.175781 138.003906 C 280.804688 138.421875 280.289062 138.765625 279.832031 139.074219 C 272.5 143.996094 264.726562 148.375 256.730469 152.09375 C 256.296875 152.296875 256.109375 152.8125 256.308594 153.246094 C 256.457031 153.558594 256.769531 153.746094 257.09375 153.746094 C 257.214844 153.746094 257.339844 153.71875 257.457031 153.664062 C 258.421875 153.21875 259.378906 152.757812 260.335938 152.292969 C 258.210938 153.421875 256.027344 154.53125 253.828125 155.578125 C 254.320312 154.507812 254.589844 153.917969 254.589844 153.917969 C 253.121094 149.125 245.097656 143.421875 236.523438 138.515625 C 237.507812 137.539062 238.371094 136.691406 239.054688 136.023438 C 244.960938 130.242188 250.234375 106.671875 238.0625 106.722656 C 232.171875 106.753906 225.042969 111.585938 218.96875 117.546875 C 218.734375 117.515625 218.492188 117.578125 218.300781 117.746094 C 210.222656 124.777344 205.320312 134.59375 200.578125 144.085938 L 200.539062 144.164062 C 199.222656 146.800781 197.726562 149.789062 195.351562 151.785156 C 193.34375 153.472656 190 154.613281 187.402344 153.121094 C 183.886719 151.105469 183.921875 145.820312 184.257812 142.847656 C 185.277344 133.785156 189.171875 126.515625 193.296875 118.820312 C 194.140625 117.246094 194.992188 115.65625 195.832031 114.03125 C 199.511719 106.890625 204.890625 100.613281 211.375 95.875 C 211.757812 95.59375 211.84375 95.050781 211.5625 94.667969 C 211.28125 94.28125 210.742188 94.195312 210.355469 94.476562 C 203.652344 99.371094 198.097656 105.859375 194.292969 113.238281 C 193.460938 114.855469 192.613281 116.4375 191.773438 118 C 191.464844 118.578125 191.160156 119.148438 190.855469 119.722656 C 185.535156 115.335938 185.910156 108.117188 186.335938 105.179688 C 187.03125 100.367188 189.101562 95.5625 192.671875 90.484375 C 195.703125 86.179688 198.957031 82.714844 203.230469 79.261719 C 203.601562 78.960938 203.65625 78.417969 203.355469 78.046875 C 203.058594 77.671875 202.511719 77.617188 202.140625 77.917969 C 197.742188 81.476562 194.386719 85.046875 191.257812 89.488281 C 189.21875 92.386719 187.664062 95.210938 186.535156 98.003906 C 186.4375 97.832031 186.339844 97.65625 186.242188 97.488281 C 185.621094 96.421875 185.035156 95.417969 184.867188 94.355469 C 184.5 92.03125 184.894531 88.820312 185.277344 86.285156 C 185.796875 82.855469 187.402344 79.585938 189.804688 77.082031 C 190.132812 76.738281 190.121094 76.1875 189.777344 75.855469 C 189.433594 75.527344 188.886719 75.539062 188.554688 75.882812 C 186.644531 77.875 185.199219 80.3125 184.324219 82.933594 C 184.859375 76.230469 185.992188 67.851562 190.707031 64.246094 C 197.753906 58.847656 205.929688 56.339844 205.929688 56.339844 C 205.929688 56.339844 213.832031 52.546875 224.023438 54.390625 C 224.027344 54.542969 224.058594 54.699219 224.148438 54.835938 C 229.269531 62.613281 233.792969 70.265625 232.898438 78.414062 C 232.609375 81.03125 231.777344 83.507812 230.894531 86.128906 C 230.542969 87.1875 230.171875 88.285156 229.847656 89.375 C 228.410156 94.230469 228.347656 98.125 229.652344 101.28125 C 229.789062 101.613281 230.109375 101.816406 230.449219 101.816406 C 230.558594 101.816406 230.671875 101.792969 230.78125 101.746094 C 231.222656 101.566406 231.429688 101.058594 231.25 100.617188 C 230.101562 97.84375 230.1875 94.328125 231.507812 89.867188 C 231.820312 88.804688 232.183594 87.726562 232.535156 86.679688 C 233.40625 84.085938 234.308594 81.40625 234.617188 78.601562 C 235.535156 70.242188 231.265625 62.585938 226.238281 54.871094 C 229.300781 55.660156 232.527344 56.980469 235.773438 59.082031 C 250.925781 68.882812 265.292969 81.484375 276.929688 83.800781 C 288.5625 86.132812 305.316406 82.972656 305.316406 82.972656 Z M 115.78125 84.378906 C 115.78125 83.1875 116.75 82.21875 117.941406 82.21875 L 128.960938 82.21875 L 128.960938 71.191406 C 128.960938 69.996094 129.925781 69.027344 131.121094 69.027344 C 132.3125 69.027344 133.28125 69.996094 133.28125 71.191406 L 133.28125 82.21875 L 144.300781 82.21875 C 145.492188 82.21875 146.460938 83.1875 146.460938 84.378906 C 146.460938 85.574219 145.492188 86.542969 144.300781 86.542969 L 133.28125 86.542969 L 133.28125 97.570312 C 133.28125 98.765625 132.3125 99.734375 131.121094 99.734375 C 129.925781 99.734375 128.960938 98.765625 128.960938 97.570312 L 128.960938 86.542969 L 117.941406 86.542969 C 116.75 86.542969 115.78125 85.574219 115.78125 84.378906 Z M 94.21875 198.625 C 94.21875 197.429688 95.183594 196.460938 96.378906 196.460938 L 107.394531 196.460938 L 107.394531 185.433594 C 107.394531 184.238281 108.363281 183.269531 109.554688 183.269531 C 110.75 183.269531 111.71875 184.238281 111.71875 185.433594 L 111.71875 196.460938 L 122.734375 196.460938 C 123.929688 196.460938 124.894531 197.429688 124.894531 198.625 C 124.894531 199.820312 123.929688 200.789062 122.734375 200.789062 L 111.71875 200.789062 L 111.71875 211.816406 C 111.71875 213.011719 110.75 213.980469 109.554688 213.980469 C 108.363281 213.980469 107.394531 213.011719 107.394531 211.816406 L 107.394531 200.789062 L 96.378906 200.789062 C 95.183594 200.789062 94.21875 199.820312 94.21875 198.625 Z M 275.585938 201.609375 C 275.585938 202.207031 275.101562 202.691406 274.503906 202.691406 L 268.996094 202.691406 L 268.996094 208.203125 C 268.996094 208.800781 268.511719 209.285156 267.914062 209.285156 C 267.320312 209.285156 266.835938 208.800781 266.835938 208.203125 L 266.835938 202.691406 L 261.324219 202.691406 C 260.730469 202.691406 260.246094 202.207031 260.246094 201.609375 C 260.246094 201.011719 260.730469 200.527344 261.324219 200.527344 L 266.835938 200.527344 L 266.835938 195.011719 C 266.835938 194.417969 267.320312 193.933594 267.914062 193.933594 C 268.511719 193.933594 268.996094 194.417969 268.996094 195.011719 L 268.996094 200.527344 L 274.503906 200.527344 C 275.101562 200.527344 275.585938 201.011719 275.585938 201.609375 Z M 275.585938 201.609375 " fill-opacity="1" fill-rule="nonzero"/></g><path fill="#231f20" d="M 205.867188 263.199219 C 206.039062 263.476562 206.183594 263.773438 206.3125 264.070312 C 207.875 267.738281 206.300781 272.847656 203.574219 275.339844 C 203.222656 275.664062 202.675781 275.636719 202.351562 275.285156 C 202.148438 275.058594 202.097656 274.753906 202.171875 274.480469 C 202.214844 274.324219 202.28125 274.175781 202.410156 274.0625 C 204.8125 271.867188 206.203125 267.039062 204.394531 264.105469 C 202.914062 261.703125 200.546875 262.25 196.820312 263.441406 L 196.207031 263.636719 C 186.207031 266.789062 182.277344 269.695312 178.476562 272.507812 C 176.0625 274.292969 173.777344 275.984375 170.136719 277.546875 C 170.023438 277.59375 169.910156 277.617188 169.796875 277.617188 C 169.460938 277.617188 169.140625 277.417969 169 277.089844 C 168.8125 276.652344 169.015625 276.144531 169.453125 275.957031 C 172.914062 274.472656 175.117188 272.839844 177.449219 271.117188 C 181.183594 268.355469 185.414062 265.222656 195.6875 261.984375 L 196.292969 261.792969 C 199.535156 260.757812 203.570312 259.46875 205.867188 263.199219 Z M 103.027344 280.132812 C 103.09375 279.882812 103.046875 279.613281 102.894531 279.40625 L 97.019531 271.234375 C 96.738281 270.847656 96.199219 270.757812 95.8125 271.039062 C 95.421875 271.316406 95.335938 271.859375 95.613281 272.246094 L 101.253906 280.085938 L 98.417969 290.796875 C 98.296875 291.261719 98.570312 291.734375 99.03125 291.855469 C 99.105469 291.875 99.183594 291.886719 99.253906 291.886719 C 99.636719 291.886719 99.988281 291.628906 100.089844 291.242188 Z M 155.421875 232.351562 C 160.984375 224.058594 165.492188 216.914062 164.304688 213.445312 C 164.230469 213.230469 164.152344 213.027344 164.066406 212.832031 C 163.738281 212.074219 163.316406 211.453125 162.808594 210.964844 C 162.386719 210.558594 161.90625 210.246094 161.363281 210.035156 C 160.59375 209.734375 159.808594 209.683594 159.101562 209.753906 C 157.703125 209.882812 156.609375 210.46875 156.542969 210.503906 C 156.125 210.734375 155.972656 211.257812 156.199219 211.675781 C 156.246094 211.757812 156.308594 211.820312 156.371094 211.882812 C 156.636719 212.132812 157.03125 212.207031 157.371094 212.023438 C 157.390625 212.015625 159.210938 211.046875 160.746094 211.652344 C 161.601562 211.984375 162.25 212.777344 162.667969 214.007812 C 162.726562 214.167969 162.75 214.351562 162.765625 214.546875 C 162.765625 214.585938 162.773438 214.617188 162.777344 214.65625 C 162.894531 218.105469 157.375 226.332031 153.988281 231.382812 C 151.277344 235.421875 149.96875 237.410156 149.855469 238.429688 C 149.828125 238.664062 149.800781 239.066406 149.761719 239.605469 C 148.71875 254.898438 144.828125 264.050781 138.203125 266.804688 C 137.761719 266.988281 137.550781 267.492188 137.734375 267.933594 C 137.871094 268.269531 138.195312 268.46875 138.53125 268.46875 C 138.640625 268.46875 138.753906 268.445312 138.863281 268.402344 C 142.222656 267.007812 144.925781 264.183594 146.984375 260 C 153.019531 264.972656 156.816406 272.757812 156.949219 280.582031 C 156.957031 281.054688 157.34375 281.429688 157.8125 281.429688 C 157.820312 281.429688 157.824219 281.429688 157.828125 281.429688 C 158.304688 281.421875 158.6875 281.027344 158.679688 280.550781 C 158.535156 272.078125 154.347656 263.648438 147.722656 258.371094 C 149.695312 253.644531 150.960938 247.425781 151.488281 239.722656 C 151.523438 239.21875 151.546875 238.84375 151.574219 238.625 C 151.636719 238.171875 152.542969 236.703125 153.664062 234.996094 C 154.109375 234.3125 154.59375 233.589844 155.066406 232.878906 C 155.1875 232.703125 155.304688 232.527344 155.421875 232.351562 Z M 224.148438 54.835938 C 229.269531 62.613281 233.789062 70.269531 232.894531 78.414062 C 232.609375 81.03125 231.777344 83.507812 230.894531 86.132812 C 230.539062 87.191406 230.171875 88.285156 229.847656 89.378906 C 228.410156 94.230469 228.34375 98.125 229.648438 101.28125 C 229.785156 101.613281 230.109375 101.816406 230.449219 101.816406 C 230.558594 101.816406 230.671875 101.792969 230.777344 101.75 C 231.21875 101.566406 231.429688 101.058594 231.246094 100.617188 C 230.097656 97.84375 230.183594 94.328125 231.503906 89.871094 C 231.820312 88.804688 232.183594 87.726562 232.535156 86.683594 C 233.40625 84.089844 234.308594 81.40625 234.613281 78.601562 C 235.53125 70.242188 231.265625 62.585938 226.238281 54.871094 C 226.023438 54.542969 225.808594 54.214844 225.59375 53.882812 C 225.328125 53.488281 224.792969 53.375 224.394531 53.636719 C 224.132812 53.808594 224.011719 54.097656 224.019531 54.390625 C 224.027344 54.542969 224.058594 54.699219 224.148438 54.835938 Z M 169.191406 143.015625 C 169.328125 143.355469 169.652344 143.5625 169.996094 143.5625 C 170.101562 143.5625 170.210938 143.542969 170.316406 143.503906 C 170.757812 143.328125 170.976562 142.824219 170.800781 142.382812 C 167.300781 133.511719 162.300781 125.417969 155.9375 118.320312 C 155.621094 117.964844 155.074219 117.933594 154.71875 118.253906 C 154.363281 118.574219 154.332031 119.121094 154.652344 119.476562 C 160.875 126.417969 165.769531 134.339844 169.191406 143.015625 Z M 141.558594 173.109375 C 134.128906 170.15625 125.988281 168.859375 118.011719 169.351562 C 117.535156 169.382812 117.175781 169.792969 117.203125 170.269531 C 117.234375 170.746094 117.648438 171.117188 118.121094 171.078125 C 125.84375 170.601562 133.726562 171.855469 140.921875 174.714844 C 141.023438 174.757812 141.132812 174.777344 141.238281 174.777344 C 141.582031 174.777344 141.910156 174.570312 142.042969 174.230469 C 142.21875 173.785156 142.003906 173.28125 141.558594 173.109375 Z M 174.386719 259.804688 C 173.988281 260.070312 173.882812 260.605469 174.144531 261.003906 C 174.3125 261.257812 174.585938 261.390625 174.867188 261.390625 C 175.03125 261.390625 175.195312 261.34375 175.34375 261.246094 C 176.746094 260.316406 178.195312 259.351562 179.792969 258.945312 C 182.035156 258.371094 184.234375 258.023438 186.558594 257.660156 L 187.019531 257.585938 C 191.726562 256.84375 195.640625 253.917969 199.421875 251.085938 C 203.511719 248.027344 207.375 245.136719 212.074219 244.890625 C 212.957031 244.839844 215.121094 244.882812 216.15625 246.273438 C 217.261719 247.753906 216.71875 250.085938 214.542969 253.203125 C 214.296875 253.554688 214.363281 254.015625 214.65625 254.304688 C 214.691406 254.339844 214.714844 254.378906 214.753906 254.40625 C 215.144531 254.679688 215.683594 254.585938 215.960938 254.195312 C 218.609375 250.398438 219.144531 247.386719 217.542969 245.238281 C 216.066406 243.253906 213.425781 243.085938 211.984375 243.160156 C 206.761719 243.4375 202.503906 246.621094 198.386719 249.699219 C 194.773438 252.40625 191.035156 255.199219 186.75 255.878906 L 186.292969 255.949219 C 184.617188 256.214844 182.898438 256.484375 181.175781 256.847656 C 180.574219 256.976562 179.96875 257.113281 179.363281 257.269531 C 177.484375 257.75 175.839844 258.839844 174.386719 259.804688 Z M 200.351562 148.230469 C 200.988281 147.128906 201.550781 146.003906 202.082031 144.9375 L 202.121094 144.859375 C 202.285156 144.53125 202.449219 144.203125 202.613281 143.875 C 203.066406 142.972656 203.519531 142.070312 203.976562 141.167969 C 208.109375 133.027344 212.640625 124.964844 219.433594 119.050781 C 219.792969 118.738281 219.832031 118.191406 219.519531 117.832031 C 219.371094 117.660156 219.175781 117.570312 218.96875 117.546875 C 218.734375 117.519531 218.492188 117.578125 218.300781 117.746094 C 210.222656 124.78125 205.320312 134.59375 200.578125 144.085938 L 200.539062 144.164062 C 199.222656 146.800781 197.726562 149.789062 195.351562 151.785156 C 193.34375 153.476562 190 154.613281 187.402344 153.121094 C 183.886719 151.105469 183.921875 145.820312 184.257812 142.847656 C 185.277344 133.789062 189.171875 126.515625 193.296875 118.820312 C 194.140625 117.246094 194.992188 115.65625 195.832031 114.03125 C 199.511719 106.890625 204.890625 100.613281 211.375 95.875 C 211.757812 95.59375 211.84375 95.054688 211.5625 94.667969 C 211.28125 94.28125 210.742188 94.195312 210.355469 94.480469 C 203.652344 99.375 198.097656 105.859375 194.292969 113.238281 C 193.460938 114.855469 192.613281 116.4375 191.773438 118.003906 C 191.464844 118.578125 191.160156 119.148438 190.855469 119.722656 C 185.535156 115.335938 185.910156 108.121094 186.335938 105.179688 C 187.03125 100.371094 189.101562 95.5625 192.671875 90.488281 C 195.703125 86.179688 198.957031 82.71875 203.230469 79.261719 C 203.601562 78.964844 203.65625 78.417969 203.355469 78.046875 C 203.058594 77.675781 202.511719 77.617188 202.140625 77.917969 C 197.742188 81.476562 194.386719 85.046875 191.257812 89.492188 C 189.21875 92.390625 187.664062 95.210938 186.535156 98.003906 C 186.4375 97.832031 186.339844 97.65625 186.242188 97.488281 C 185.621094 96.425781 185.035156 95.421875 184.867188 94.355469 C 184.5 92.03125 184.894531 88.820312 185.277344 86.285156 C 185.796875 82.855469 187.402344 79.585938 189.804688 77.082031 C 190.132812 76.738281 190.121094 76.191406 189.777344 75.859375 C 189.433594 75.527344 188.886719 75.539062 188.554688 75.882812 C 186.644531 77.878906 185.199219 80.316406 184.324219 82.9375 C 183.988281 83.945312 183.726562 84.976562 183.570312 86.027344 C 183.167969 88.683594 182.757812 92.066406 183.160156 94.625 C 183.378906 96.011719 184.078125 97.207031 184.75 98.359375 C 185.097656 98.957031 185.425781 99.519531 185.679688 100.089844 C 185.695312 100.128906 185.722656 100.160156 185.742188 100.195312 C 185.234375 101.777344 184.851562 103.351562 184.621094 104.933594 C 183.621094 111.863281 185.59375 117.820312 190.023438 121.289062 C 186.511719 127.96875 183.445312 134.582031 182.539062 142.65625 C 182.15625 146.046875 182.167969 152.113281 186.542969 154.625 C 187.660156 155.265625 188.867188 155.535156 190.074219 155.535156 C 190.484375 155.535156 190.886719 155.496094 191.292969 155.4375 C 193.246094 155.15625 195.113281 154.246094 196.460938 153.113281 C 198.097656 151.738281 199.324219 150.007812 200.351562 148.230469 Z M 138.691406 305.8125 C 133.988281 305.972656 129.199219 305.546875 124.5625 305.128906 C 122.363281 304.933594 120.09375 304.730469 117.851562 304.589844 C 111.820312 304.214844 103.980469 304.148438 96.808594 306.984375 C 96.738281 307.011719 96.683594 307.058594 96.625 307.101562 C 96.316406 307.332031 96.175781 307.734375 96.324219 308.105469 C 96.457031 308.445312 96.78125 308.652344 97.128906 308.652344 C 97.234375 308.652344 97.339844 308.636719 97.445312 308.59375 C 104.300781 305.882812 111.894531 305.953125 117.742188 306.320312 C 119.960938 306.457031 122.222656 306.660156 124.410156 306.855469 C 129.097656 307.273438 133.949219 307.710938 138.75 307.542969 C 139.226562 307.527344 139.601562 307.125 139.585938 306.648438 C 139.585938 306.640625 139.582031 306.632812 139.582031 306.625 C 139.550781 306.160156 139.15625 305.78125 138.691406 305.8125 Z M 283.683594 137.117188 C 284.773438 134.734375 285.667969 132.242188 286.335938 129.710938 C 286.460938 129.25 286.183594 128.773438 285.722656 128.652344 C 285.261719 128.53125 284.789062 128.804688 284.664062 129.265625 C 284.019531 131.703125 283.160156 134.101562 282.113281 136.398438 C 281.851562 136.964844 281.566406 137.558594 281.171875 138.003906 C 280.800781 138.421875 280.285156 138.765625 279.828125 139.074219 C 272.5 143.996094 264.726562 148.375 256.730469 152.09375 C 256.296875 152.296875 256.105469 152.8125 256.308594 153.246094 C 256.457031 153.558594 256.765625 153.746094 257.09375 153.746094 C 257.214844 153.746094 257.339844 153.71875 257.457031 153.664062 C 258.417969 153.21875 259.378906 152.757812 260.335938 152.292969 C 267.402344 148.84375 274.269531 144.890625 280.792969 140.511719 C 281.308594 140.167969 281.949219 139.738281 282.46875 139.152344 C 282.507812 139.105469 282.539062 139.054688 282.578125 139.007812 C 283.0625 138.417969 283.394531 137.753906 283.683594 137.117188 Z M 283.683594 137.117188 " fill-opacity="1" fill-rule="nonzero"/></svg>